<svg width="18" height="17" viewBox="0 0 18 17" fill="none" xmlns="http://www.w3.org/2000/svg">
<path id="Vector" d="M6.30481 3.8094H8.08315V11.9778C8.08315 12.084 8.16979 12.1709 8.27567 12.1709H9.71952C9.8254 12.1709 9.91203 12.084 9.91203 11.9778V3.8094H11.6952C11.8564 3.8094 11.9455 3.62348 11.8468 3.49792L9.1516 0.0741139C9.1336 0.0510266 9.11059 0.032355 9.08432 0.0195142C9.05805 0.00667334 9.02922 0 9 0C8.97078 0 8.94195 0.00667334 8.91568 0.0195142C8.88941 0.032355 8.8664 0.0510266 8.8484 0.0741139L6.15321 3.49551C6.05455 3.62348 6.14358 3.8094 6.30481 3.8094ZM17.8075 11.2534H16.3636C16.2578 11.2534 16.1711 11.3403 16.1711 11.4466V15.165H1.82888V11.4466C1.82888 11.3403 1.74225 11.2534 1.63636 11.2534H0.192513C0.086631 11.2534 0 11.3403 0 11.4466V16.2273C0 16.6547 0.344118 17 0.770053 17H17.2299C17.6559 17 18 16.6547 18 16.2273V11.4466C18 11.3403 17.9134 11.2534 17.8075 11.2534Z" fill="#4540DB"/>
</svg>
