<svg width="47" height="47" viewBox="0 0 47 47" fill="none" xmlns="http://www.w3.org/2000/svg">
<g id="Group">
<path id="Vector" d="M23.5 1C11.0733 1 1 11.0733 1 23.5C1 35.9267 11.0733 46 23.5 46C35.9267 46 46 35.9267 46 23.5C46 11.0733 35.9267 1 23.5 1Z" stroke="#8783E7" stroke-width="1.5" stroke-linecap="round" stroke-linejoin="round"/>
<path id="Vector_2" d="M14.4985 44.128V28L23.4985 12.25L32.4985 28V44.128" stroke="#8783E7" stroke-width="1.5" stroke-linecap="round" stroke-linejoin="round"/>
<path id="Vector_3" d="M14.4985 28.0007C14.4985 28.0007 17.0343 30.2507 18.9985 30.2507C20.9628 30.2507 23.4985 28.0007 23.4985 28.0007C23.4985 28.0007 26.0343 30.2507 27.9985 30.2507C29.9628 30.2507 32.4985 28.0007 32.4985 28.0007" stroke="#8783E7" stroke-width="1.5" stroke-linecap="round" stroke-linejoin="round"/>
</g>
</svg>
