<svg width="662" height="487" viewBox="0 0 662 487" fill="none" xmlns="http://www.w3.org/2000/svg">
<path d="M594.859 453.688H551.113V454.018H594.859V453.688Z" fill="#EBEBEB"/>
<path d="M438.103 457.283H426.625V457.614H438.103V457.283Z" fill="#EBEBEB"/>
<path d="M549.79 441.431H524.444V441.762H549.79V441.431Z" fill="#EBEBEB"/>
<path d="M126.957 443.652H69.9103V443.982H126.957V443.652Z" fill="#EBEBEB"/>
<path d="M147.083 443.652H138.722V443.982H147.083V443.652Z" fill="#EBEBEB"/>
<path d="M298.002 449.226H174.267V449.556H298.002V449.226Z" fill="#EBEBEB"/>
<path d="M313.656 373.529H58.6311C56.6308 373.529 54.7125 372.735 53.2981 371.32C51.8838 369.906 51.0892 367.987 51.0892 365.987V7.47587C51.1066 5.48709 51.9089 3.5857 53.3214 2.18557C54.7339 0.785445 56.6422 -7.62458e-05 58.6311 5.55083e-09H313.656C315.656 5.55085e-09 317.574 0.794592 318.989 2.20897C320.403 3.62336 321.198 5.54167 321.198 7.54191V365.987C321.198 367.987 320.403 369.906 318.989 371.32C317.574 372.735 315.656 373.529 313.656 373.529ZM58.6311 0.264166C56.7195 0.267657 54.8872 1.02858 53.5355 2.38028C52.1838 3.73198 51.4229 5.56428 51.4194 7.47587V365.987C51.4229 367.899 52.1838 369.731 53.5355 371.083C54.8872 372.435 56.7195 373.195 58.6311 373.199H313.656C315.567 373.195 317.4 372.435 318.751 371.083C320.103 369.731 320.864 367.899 320.868 365.987V7.47587C320.864 5.56428 320.103 3.73198 318.751 2.38028C317.4 1.02858 315.567 0.267657 313.656 0.264166H58.6311Z" fill="#EBEBEB"/>
<path d="M599.362 373.529H344.311C342.312 373.526 340.395 372.73 338.982 371.316C337.568 369.903 336.772 367.986 336.769 365.987V7.47587C336.79 5.48817 337.593 3.58878 339.005 2.18939C340.417 0.789997 342.323 0.00336584 344.311 0H599.362C601.346 0.00687423 603.248 0.795465 604.655 2.19485C606.061 3.59424 606.86 5.49166 606.877 7.47587V365.987C606.877 367.983 606.086 369.897 604.678 371.311C603.269 372.724 601.358 373.522 599.362 373.529ZM344.311 0.264166C342.399 0.267657 340.567 1.02858 339.215 2.38028C337.863 3.73198 337.103 5.56428 337.099 7.47587V365.987C337.103 367.899 337.863 369.731 339.215 371.083C340.567 372.435 342.399 373.195 344.311 373.199H599.362C601.273 373.195 603.106 372.435 604.457 371.083C605.809 369.731 606.57 367.899 606.574 365.987V7.47587C606.57 5.56428 605.809 3.73198 604.457 2.38028C603.106 1.02858 601.273 0.267657 599.362 0.264166H344.311Z" fill="#EBEBEB"/>
<path d="M661.031 432.437H0.619141V432.768H661.031V432.437Z" fill="#EBEBEB"/>
<path d="M129.662 59.8589H127.284V245.263H129.662V59.8589Z" fill="#E0E0E0"/>
<path d="M277.662 59.8589H275.284V245.263H277.662V59.8589Z" fill="#E0E0E0"/>
<path d="M286.974 71.5225H117.975L114.408 63.2013H290.54L286.974 71.5225Z" fill="#EBEBEB"/>
<path d="M286.974 82.9486H117.975L114.408 74.6274H290.54L286.974 82.9486Z" fill="#EBEBEB"/>
<path d="M286.974 94.3723H117.975L114.408 86.0511H290.54L286.974 94.3723Z" fill="#EBEBEB"/>
<path d="M286.974 105.796H117.975L114.408 97.4749H290.54L286.974 105.796Z" fill="#EBEBEB"/>
<path d="M286.974 117.225H117.975L114.408 108.903H290.54L286.974 117.225Z" fill="#EBEBEB"/>
<path d="M286.974 128.648H117.975L114.408 120.327H290.54L286.974 128.648Z" fill="#EBEBEB"/>
<path d="M286.974 140.072H117.975L114.408 131.751H290.54L286.974 140.072Z" fill="#EBEBEB"/>
<path d="M286.974 151.498H117.975L114.408 143.177H290.54L286.974 151.498Z" fill="#EBEBEB"/>
<path d="M286.974 162.91H117.975L114.408 154.589H290.54L286.974 162.91Z" fill="#EBEBEB"/>
<path d="M286.974 174.338H117.975L114.408 166.017H290.54L286.974 174.338Z" fill="#EBEBEB"/>
<path d="M286.974 185.76H117.975L114.408 177.438H290.54L286.974 185.76Z" fill="#EBEBEB"/>
<path d="M286.974 197.188H117.975L114.408 188.867H290.54L286.974 197.188Z" fill="#EBEBEB"/>
<path d="M286.974 208.612H117.975L114.408 200.291H290.54L286.974 208.612Z" fill="#EBEBEB"/>
<path d="M286.974 220.038H117.975L114.408 211.717H290.54L286.974 220.038Z" fill="#EBEBEB"/>
<path d="M286.974 231.462H117.975L114.408 223.141H290.54L286.974 231.462Z" fill="#EBEBEB"/>
<path d="M286.974 242.888H117.975L114.408 234.567H290.54L286.974 242.888Z" fill="#EBEBEB"/>
<path d="M290.54 242.886H114.408V247.641H290.54V242.886Z" fill="#E0E0E0"/>
<path d="M296.681 52.7817H108.266V63.8767H296.681V52.7817Z" fill="#E0E0E0"/>
<path d="M110.248 164.47C109.74 164.47 109.253 164.268 108.894 163.909C108.535 163.55 108.333 163.063 108.333 162.555V97.8345C108.333 97.5829 108.382 97.3339 108.479 97.1015C108.575 96.8692 108.716 96.658 108.894 96.4802C109.072 96.3023 109.283 96.1613 109.515 96.065C109.748 95.9688 109.997 95.9193 110.248 95.9193C110.756 95.9193 111.243 96.121 111.602 96.4802C111.962 96.8394 112.163 97.3265 112.163 97.8345V162.555C112.163 162.806 112.114 163.055 112.018 163.288C111.921 163.52 111.78 163.731 111.602 163.909C111.425 164.087 111.213 164.228 110.981 164.324C110.749 164.42 110.5 164.47 110.248 164.47Z" fill="#E0E0E0"/>
<path d="M110.895 61.6553H109.508V100.091H110.895V61.6553Z" fill="#E0E0E0"/>
<path d="M325.371 130.431H331.236C332.199 130.431 333.123 130.814 333.804 131.495C334.485 132.176 334.868 133.1 334.868 134.064V304.569H321.726V134.064C321.726 133.585 321.82 133.112 322.004 132.67C322.187 132.229 322.456 131.828 322.794 131.49C323.133 131.153 323.535 130.886 323.977 130.704C324.419 130.522 324.893 130.429 325.371 130.431Z" fill="#E6E6E6"/>
<path d="M329.413 130.431H325.794C324.717 130.431 323.685 130.858 322.922 131.618C322.159 132.378 321.729 133.41 321.726 134.486V304.569H325.345V134.486C325.348 133.41 325.779 132.378 326.541 131.618C327.304 130.858 328.336 130.431 329.413 130.431Z" fill="#F0F0F0"/>
<path d="M338.682 293.328H317.998V432.767H338.682V293.328Z" fill="#EBEBEB"/>
<path d="M310.642 427.128H346.04C347.379 427.128 348.662 427.659 349.608 428.605C350.554 429.552 351.086 430.835 351.086 432.173V432.754H305.597V432.173C305.597 430.835 306.128 429.552 307.075 428.605C308.021 427.659 309.304 427.128 310.642 427.128Z" fill="#E6E6E6"/>
<path d="M524.22 363.888H557.571C560.446 363.884 563.202 362.74 565.235 360.708C567.268 358.675 568.411 355.919 568.415 353.044V304.279C568.415 303.753 568.206 303.249 567.834 302.878C567.463 302.506 566.959 302.297 566.433 302.297C565.908 302.297 565.404 302.506 565.032 302.878C564.661 303.249 564.452 303.753 564.452 304.279V353.044C564.452 354.869 563.727 356.619 562.437 357.91C561.146 359.2 559.396 359.925 557.571 359.925H524.22V363.888Z" fill="#E0E0E0"/>
<path d="M514.683 410.617V365.207L512.041 364.375C510.579 363.915 509.302 363.001 508.395 361.766C507.488 360.531 506.998 359.039 506.995 357.507H532.157C532.157 359.039 531.667 360.532 530.76 361.768C529.852 363.003 528.574 363.916 527.111 364.375L524.47 365.207V410.617L545.352 420.021V423.984L519.556 414.962L493.761 423.984V420.021L514.683 410.617Z" fill="#E0E0E0"/>
<path d="M486.683 359.925H552.474C553.412 359.925 554.341 359.74 555.208 359.381C556.075 359.022 556.863 358.496 557.526 357.832C558.19 357.169 558.716 356.381 559.075 355.514C559.434 354.647 559.619 353.718 559.619 352.779C559.616 350.887 558.861 349.072 557.522 347.735C556.182 346.398 554.366 345.647 552.474 345.647H486.683C484.792 345.647 482.978 346.398 481.64 347.736C480.302 349.074 479.551 350.888 479.551 352.779C479.549 353.717 479.732 354.646 480.09 355.513C480.448 356.38 480.973 357.168 481.635 357.831C482.298 358.495 483.085 359.022 483.951 359.381C484.817 359.74 485.746 359.925 486.683 359.925Z" fill="#F0F0F0"/>
<path d="M564.057 321.435L567.61 270.663C567.741 268.779 567.119 266.92 565.881 265.494C564.643 264.067 562.89 263.19 561.006 263.055C559.12 262.921 557.258 263.541 555.828 264.779C554.399 266.018 553.52 267.773 553.385 269.659L549.832 320.432C549.701 322.317 550.323 324.178 551.56 325.606C552.798 327.034 554.551 327.914 556.436 328.053C558.324 328.183 560.186 327.56 561.615 326.32C563.044 325.079 563.922 323.323 564.057 321.435Z" fill="#EBEBEB"/>
<path d="M540.835 426.773C540.835 427.667 541.1 428.54 541.597 429.283C542.093 430.026 542.799 430.605 543.624 430.947C544.449 431.289 545.358 431.378 546.234 431.204C547.11 431.03 547.915 430.599 548.547 429.968C549.179 429.336 549.609 428.531 549.783 427.655C549.957 426.778 549.868 425.87 549.526 425.045C549.184 424.219 548.605 423.514 547.862 423.018C547.119 422.521 546.246 422.256 545.353 422.256C544.759 422.256 544.172 422.373 543.624 422.6C543.076 422.827 542.578 423.16 542.158 423.579C541.739 423.999 541.406 424.497 541.179 425.045C540.952 425.593 540.835 426.18 540.835 426.773Z" fill="#E0E0E0"/>
<path d="M489.246 426.773C489.246 427.667 489.511 428.54 490.007 429.283C490.503 430.026 491.209 430.605 492.034 430.947C492.86 431.289 493.768 431.378 494.644 431.204C495.52 431.03 496.325 430.599 496.957 429.968C497.589 429.336 498.019 428.531 498.193 427.655C498.368 426.778 498.278 425.87 497.936 425.045C497.594 424.219 497.015 423.514 496.272 423.018C495.53 422.521 494.656 422.256 493.763 422.256C492.565 422.256 491.416 422.732 490.569 423.579C489.722 424.426 489.246 425.575 489.246 426.773Z" fill="#E0E0E0"/>
<path d="M133.19 363.888H99.8392C96.962 363.888 94.2024 362.745 92.1666 360.712C90.1309 358.679 88.9855 355.921 88.982 353.044V304.279C88.982 303.753 89.1907 303.249 89.5623 302.878C89.9338 302.506 90.4378 302.297 90.9632 302.297C91.4887 302.297 91.9926 302.506 92.3642 302.878C92.7357 303.249 92.9445 303.753 92.9445 304.279V353.044C92.948 354.87 93.6759 356.62 94.9685 357.91C96.2612 359.2 98.0129 359.925 99.8392 359.925H133.19V363.888Z" fill="#E0E0E0"/>
<path d="M142.725 410.617V365.207L145.367 364.375C146.827 363.914 148.103 363 149.007 361.765C149.912 360.529 150.4 359.038 150.399 357.507H125.304C125.306 359.039 125.796 360.531 126.703 361.766C127.611 363.001 128.888 363.915 130.349 364.375L132.991 365.207V410.617L112.056 420.021V423.984L137.851 414.962L163.647 423.984V420.021L142.725 410.617Z" fill="#E0E0E0"/>
<path d="M170.741 359.925H104.964C103.071 359.922 101.257 359.167 99.9198 357.828C98.5826 356.488 97.8315 354.672 97.8315 352.779C97.8315 350.888 98.583 349.074 99.9206 347.736C101.258 346.398 103.072 345.647 104.964 345.647H170.741C172.634 345.647 174.449 346.398 175.789 347.735C177.129 349.072 177.883 350.887 177.887 352.779C177.887 354.675 177.134 356.492 175.794 357.832C174.454 359.172 172.636 359.925 170.741 359.925Z" fill="#F0F0F0"/>
<path d="M93.342 321.435L89.789 270.663C89.6582 268.779 90.28 266.92 91.5181 265.494C92.7562 264.067 94.5093 263.19 96.3931 263.055C98.2794 262.921 100.142 263.541 101.571 264.779C103 266.018 103.879 267.773 104.014 269.659L107.607 320.445C107.738 322.33 107.116 324.191 105.879 325.619C104.641 327.047 102.888 327.927 101.003 328.066C100.064 328.136 99.1204 328.02 98.2265 327.724C97.3326 327.429 96.506 326.959 95.7941 326.343C95.0822 325.727 94.4991 324.976 94.0783 324.134C93.6575 323.292 93.4072 322.375 93.342 321.435Z" fill="#EBEBEB"/>
<path d="M116.561 426.773C116.561 427.667 116.295 428.541 115.798 429.284C115.302 430.028 114.595 430.607 113.769 430.948C112.943 431.29 112.034 431.378 111.157 431.203C110.281 431.028 109.476 430.596 108.845 429.963C108.213 429.33 107.784 428.524 107.611 427.647C107.439 426.769 107.53 425.861 107.874 425.036C108.218 424.21 108.799 423.506 109.543 423.011C110.288 422.516 111.163 422.254 112.057 422.256C112.649 422.256 113.236 422.373 113.783 422.6C114.331 422.828 114.828 423.16 115.246 423.58C115.665 424 115.996 424.498 116.222 425.046C116.447 425.594 116.562 426.181 116.561 426.773Z" fill="#E0E0E0"/>
<path d="M168.153 426.773C168.153 427.667 167.888 428.541 167.391 429.284C166.894 430.028 166.187 430.607 165.361 430.948C164.535 431.29 163.626 431.378 162.749 431.203C161.873 431.028 161.068 430.596 160.437 429.963C159.806 429.33 159.376 428.524 159.204 427.647C159.031 426.769 159.122 425.861 159.466 425.036C159.81 424.21 160.391 423.506 161.136 423.011C161.88 422.516 162.755 422.254 163.649 422.256C164.241 422.256 164.828 422.373 165.376 422.6C165.923 422.828 166.42 423.16 166.838 423.58C167.257 424 167.588 424.498 167.814 425.046C168.039 425.594 168.155 426.181 168.153 426.773Z" fill="#E0E0E0"/>
<path d="M274.928 432.769H249.172L246.53 383.925H277.569L274.928 432.769Z" fill="#EBEBEB"/>
<path d="M255.117 432.766H244.551V430.587L255.117 429.266V432.766Z" fill="#E0E0E0"/>
<path d="M250.454 379.961H273.648C274.699 379.961 275.707 380.379 276.45 381.122C277.193 381.865 277.61 382.873 277.61 383.924H246.518C246.518 382.873 246.936 381.865 247.679 381.122C248.422 380.379 249.43 379.961 250.481 379.961H250.454Z" fill="#E0E0E0"/>
<path d="M222.094 306.089H180.858V301.149L222.094 298.507V306.089Z" fill="#E0E0E0"/>
<path d="M283.064 311.121H161.112V328.001H283.064V311.121Z" fill="#F0F0F0"/>
<path d="M308.343 306.088H136.266V316.152H308.343V306.088Z" fill="#FAFAFA"/>
<path d="M292.361 432.769H300.127L286.681 316.153H277.567L292.361 432.769Z" fill="#E6E6E6"/>
<path d="M167.043 316.153H157.93L144.47 432.769H152.25L167.043 316.153Z" fill="#E6E6E6"/>
<path d="M263.846 303.578C260.323 286.09 256.801 268.594 253.279 251.088C252.777 248.592 248.947 249.648 249.449 252.145L259.5 302.125H237.706C237.181 302.125 236.677 302.334 236.306 302.705C235.934 303.077 235.725 303.581 235.725 304.106C235.725 304.631 235.934 305.135 236.306 305.507C236.677 305.879 237.181 306.087 237.706 306.087H261.917C262.222 306.085 262.523 306.013 262.796 305.877C263.069 305.741 263.308 305.545 263.494 305.303C263.68 305.061 263.808 304.78 263.869 304.481C263.93 304.182 263.922 303.873 263.846 303.578Z" fill="#E0E0E0"/>
<path d="M239.174 289.5L245.963 192.445C248.47 194.234 250.475 196.638 251.787 199.425C253.098 202.212 253.671 205.289 253.452 208.361L248.816 274.733C248.609 277.814 247.613 280.791 245.925 283.377C244.237 285.963 241.912 288.071 239.174 289.5Z" fill="#FAFAFA"/>
<path d="M292.074 277.875H281.032C278.916 277.875 277.201 279.59 277.201 281.706V302.258C277.201 304.373 278.916 306.088 281.032 306.088H292.074C294.189 306.088 295.904 304.373 295.904 302.258V281.706C295.904 279.59 294.189 277.875 292.074 277.875Z" fill="#F5F5F5"/>
<path d="M284.596 267.374C281.677 267.374 279.313 268.1 279.313 268.985C279.313 269.87 281.691 268.668 284.596 268.668C284.97 268.648 285.345 268.648 285.719 268.668V275.061H287.383V268.919C288.889 269.197 289.893 269.5 289.893 268.919C289.88 268.127 287.515 267.374 284.596 267.374Z" fill="#E0E0E0"/>
<path d="M289.537 273.054H283.58V279.011H289.537V273.054Z" fill="#F0F0F0"/>
<path d="M374.347 328.013H496.299V311.133H374.347V328.013Z" fill="#F0F0F0"/>
<path d="M349.065 316.165H521.142V306.101H349.065V316.165Z" fill="#FAFAFA"/>
<path d="M365.048 432.769H357.268L370.714 316.153H379.828L365.048 432.769Z" fill="#E6E6E6"/>
<path d="M490.368 316.153H499.481L512.927 432.769H505.148L490.368 316.153Z" fill="#E6E6E6"/>
<path d="M439.568 13.8149H436.623V105.256H439.568V13.8149Z" fill="#E0E0E0"/>
<path d="M401.369 122.875L438.115 65.855L474.847 122.875H401.369Z" fill="#E0E0E0"/>
<path d="M199.309 13.8149H196.364V87.2923H199.309V13.8149Z" fill="#E0E0E0"/>
<path d="M161.112 120.474L197.844 63.4542L234.577 120.474H161.112Z" fill="#FAFAFA"/>
<path d="M324.461 486.999C465.898 486.999 580.556 480.305 580.556 472.047C580.556 463.79 465.898 457.096 324.461 457.096C183.024 457.096 68.3663 463.79 68.3663 472.047C68.3663 480.305 183.024 486.999 324.461 486.999Z" fill="#F5F5F5"/>
<path opacity="0.2" d="M326.546 467.319V470.714C326.544 471.113 326.622 471.509 326.774 471.879C326.926 472.248 327.149 472.584 327.432 472.866C327.714 473.148 328.05 473.372 328.419 473.524C328.789 473.676 329.184 473.754 329.584 473.752H455.59C456.463 473.748 457.299 473.401 457.917 472.786C458.535 472.17 458.886 471.335 458.892 470.463V466.936C458.892 466.007 458.786 465.081 458.576 464.176C458.394 463.387 458.137 462.618 457.809 461.878L427.153 394.08H355.578L366.567 457.572C366.636 457.942 366.667 458.318 366.659 458.694C366.628 460.195 366.008 461.623 364.933 462.671C363.858 463.719 362.415 464.302 360.914 464.295H329.584C329.185 464.293 328.791 464.37 328.422 464.521C328.054 464.672 327.719 464.895 327.436 465.176C327.154 465.457 326.93 465.791 326.777 466.159C326.625 466.527 326.546 466.921 326.546 467.319Z" fill="white"/>
<path d="M461.852 461.891L431.209 394.08H427.154L457.797 461.891C458.515 463.476 458.889 465.196 458.893 466.936V470.45C458.893 471.326 458.545 472.165 457.926 472.785C457.307 473.404 456.467 473.752 455.591 473.752H459.646C460.079 473.752 460.508 473.666 460.908 473.5C461.307 473.334 461.671 473.091 461.976 472.784C462.282 472.477 462.524 472.113 462.688 471.712C462.853 471.312 462.936 470.883 462.935 470.45V466.936C462.935 465.197 462.566 463.477 461.852 461.891Z" fill="#263238"/>
<path opacity="0.3" d="M427.153 394.08H355.577L358.391 410.286H434.47L427.153 394.08Z" fill="black"/>
<path d="M568.247 169.367L551.076 366.17L548.989 390.024C548.683 393.049 547.278 395.856 545.042 397.916C542.805 399.975 539.891 401.143 536.851 401.198H231.424C229.994 401.222 228.575 400.941 227.262 400.374C225.95 399.807 224.773 398.967 223.809 397.91C222.846 396.853 222.119 395.603 221.676 394.244C221.233 392.884 221.084 391.446 221.24 390.024L223.327 366.17L240.498 169.367C240.804 166.344 242.209 163.537 244.446 161.481C246.684 159.424 249.597 158.258 252.636 158.206H558.011C560.412 158.18 562.748 158.993 564.615 160.504C564.868 160.707 565.106 160.928 565.328 161.165C566.022 161.85 566.606 162.638 567.058 163.503C567.379 164.079 567.631 164.691 567.811 165.325C568.212 166.633 568.36 168.004 568.247 169.367Z" fill="#263238"/>
<path d="M223.337 366.168L221.197 390.022C221.044 391.445 221.194 392.883 221.639 394.243C222.083 395.602 222.812 396.852 223.776 397.909C224.74 398.965 225.918 399.805 227.232 400.372C228.545 400.939 229.964 401.22 231.394 401.196H536.795C539.835 401.141 542.749 399.973 544.986 397.914C547.223 395.855 548.627 393.047 548.934 390.022L551.02 366.168H223.337Z" fill="#407BFF"/>
<path opacity="0.6" d="M223.337 366.168L221.197 390.022C221.044 391.445 221.194 392.883 221.639 394.243C222.083 395.602 222.812 396.852 223.776 397.909C224.74 398.965 225.918 399.805 227.232 400.372C228.545 400.939 229.964 401.22 231.394 401.196H536.795C539.835 401.141 542.749 399.973 544.986 397.914C547.223 395.855 548.627 393.047 548.934 390.022L551.02 366.168H223.337Z" fill="white"/>
<path d="M540.257 359.422H235.292C234.517 359.436 233.748 359.285 233.036 358.979C232.325 358.672 231.686 358.218 231.164 357.645C230.641 357.073 230.247 356.396 230.007 355.659C229.767 354.923 229.686 354.143 229.771 353.373L245.726 171.007C245.891 169.362 246.655 167.835 247.873 166.717C249.091 165.599 250.677 164.968 252.33 164.944H557.269C558.045 164.93 558.815 165.081 559.528 165.389C560.241 165.696 560.88 166.151 561.402 166.725C561.925 167.299 562.319 167.978 562.558 168.716C562.798 169.454 562.877 170.235 562.79 171.007L546.835 353.373C546.667 355.011 545.905 356.531 544.693 357.645C543.481 358.76 541.903 359.392 540.257 359.422Z" fill="#407BFF"/>
<path d="M564.809 158.205H558.006C559.435 158.18 560.854 158.459 562.167 159.024C563.479 159.59 564.657 160.428 565.62 161.484C566.584 162.54 567.311 163.789 567.754 165.148C568.197 166.507 568.346 167.945 568.19 169.366L548.932 390.023C548.626 393.048 547.221 395.855 544.984 397.914C542.748 399.974 539.834 401.141 536.794 401.197H543.543C546.584 401.142 549.5 399.974 551.739 397.915C553.978 395.857 555.385 393.049 555.695 390.023L574.992 169.366C575.15 167.945 575.003 166.506 574.561 165.146C574.119 163.786 573.391 162.536 572.427 161.48C571.464 160.423 570.285 159.585 568.971 159.02C567.658 158.455 566.238 158.177 564.809 158.205Z" fill="#263238"/>
<g opacity="0.2">
<path opacity="0.2" d="M564.811 158.205H558.009C559.438 158.18 560.856 158.459 562.169 159.024C563.482 159.59 564.659 160.428 565.623 161.484C566.586 162.54 567.313 163.789 567.757 165.148C568.2 166.507 568.348 167.945 568.192 169.366L548.935 390.023C548.628 393.048 547.224 395.855 544.987 397.914C542.75 399.974 539.836 401.141 536.796 401.197H543.546C546.587 401.142 549.503 399.974 551.742 397.915C553.981 395.857 555.388 393.049 555.697 390.023L574.994 169.366C575.153 167.945 575.006 166.506 574.563 165.146C574.121 163.786 573.394 162.536 572.43 161.48C571.466 160.423 570.288 159.585 568.974 159.02C567.66 158.455 566.241 158.177 564.811 158.205Z" fill="white"/>
</g>
<g opacity="0.1">
<path opacity="0.1" d="M349.478 164.943H337.749L296.421 359.421H308.149L349.478 164.943Z" fill="white"/>
<path opacity="0.1" d="M284.556 359.422L325.898 164.944H281.822L240.48 359.422H284.556Z" fill="white"/>
</g>
<path opacity="0.2" d="M437.113 467.345V470.568C437.113 471.41 436.78 472.218 436.186 472.814C435.592 473.411 434.785 473.748 433.943 473.751H329.598C328.793 473.751 328.02 473.431 327.45 472.862C326.88 472.292 326.56 471.519 326.56 470.713V467.332C326.56 466.526 326.88 465.754 327.45 465.184C328.02 464.614 328.793 464.294 329.598 464.294H360.941C361.336 464.294 361.73 464.255 362.117 464.175H433.957C434.795 464.179 435.598 464.514 436.19 465.108C436.781 465.703 437.113 466.507 437.113 467.345Z" fill="white"/>
<path opacity="0.2" d="M458.576 464.176H362.156C363.422 463.909 364.56 463.222 365.387 462.227C366.214 461.233 366.681 459.988 366.713 458.695H456.159L458.576 464.176Z" fill="black"/>
<path opacity="0.3" d="M549.779 197.051H403.009V366.143H549.779V197.051Z" fill="black"/>
<path d="M542.039 179.208H395.546V358.748H542.039V179.208Z" fill="white"/>
<path d="M542.039 179.208H395.546V189.828H542.039V179.208Z" fill="#263238"/>
<path opacity="0.1" d="M542.037 189.825H436.16V358.745H542.037V189.825Z" fill="black"/>
<path opacity="0.1" d="M471.123 193.868H441.378V228.262H471.123V193.868Z" fill="black"/>
<path opacity="0.1" d="M538.475 193.868H476.779V208.027H538.475V193.868Z" fill="black"/>
<path opacity="0.1" d="M538.475 214.105H476.779V290.475H538.475V214.105Z" fill="black"/>
<path opacity="0.1" d="M538.475 296.537H476.779V353.689H538.475V296.537Z" fill="black"/>
<path d="M476.791 241.405H435.833V254.56H476.791V241.405Z" fill="#407BFF"/>
<path d="M436.505 214.105H395.546V227.26H436.505V214.105Z" fill="#407BFF"/>
<path d="M538.475 309.059H476.779V315.887H538.475V309.059Z" fill="black"/>
<path d="M482.986 199.603L484.267 197.001L485.549 199.603L488.415 200.012L486.341 202.046L486.83 204.899L484.267 203.552L481.705 204.899L482.194 202.046L480.107 200.025L482.986 199.603Z" fill="#407BFF"/>
<path d="M494.662 199.603L495.943 197.001L497.237 199.603L500.103 200.012L498.03 202.046L498.518 204.899L495.956 203.552L493.38 204.899L493.869 202.046L491.795 200.025L494.662 199.603Z" fill="#407BFF"/>
<path d="M506.35 199.603L507.631 197.001L508.913 199.603L511.779 200.012L509.705 202.046L510.207 204.899L507.631 203.552L505.069 204.899L505.558 202.046L503.484 200.025L506.35 199.603Z" fill="#407BFF"/>
<path d="M518.027 199.603L519.308 197.001L520.602 199.603L523.469 200.012L521.395 202.046L521.884 204.899L519.321 203.552L516.759 204.899L517.234 202.046L515.161 200.025L518.027 199.603Z" fill="black"/>
<path d="M529.718 199.603L530.999 197.001L532.28 199.603L535.146 200.012L533.086 202.046L533.575 204.899L530.999 203.552L528.437 204.899L528.925 202.046L526.852 200.025L529.718 199.603Z" fill="black"/>
<path d="M505.44 220.84H481.176V222.161H505.44V220.84Z" fill="#263238"/>
<path d="M500.328 232.213H481.176V233.534H500.328V232.213Z" fill="#263238"/>
<path d="M500.328 242.156H481.176V243.477H500.328V242.156Z" fill="#263238"/>
<path d="M500.328 252.089H481.176V253.41H500.328V252.089Z" fill="#263238"/>
<path d="M500.328 262.025H481.176V263.346H500.328V262.025Z" fill="#263238"/>
<path d="M500.328 271.97H481.176V273.291H500.328V271.97Z" fill="#263238"/>
<path d="M500.328 281.901H481.176V283.222H500.328V281.901Z" fill="#263238"/>
<path d="M522.121 232.213H502.969V233.534H522.121V232.213Z" fill="#263238"/>
<path d="M522.121 242.156H502.969V243.477H522.121V242.156Z" fill="#263238"/>
<path d="M522.121 252.089H502.969V253.41H522.121V252.089Z" fill="#263238"/>
<path d="M522.121 262.025H502.969V263.346H522.121V262.025Z" fill="#263238"/>
<path d="M522.121 271.97H502.969V273.291H522.121V271.97Z" fill="#263238"/>
<path d="M522.121 281.901H502.969V283.222H522.121V281.901Z" fill="#263238"/>
<path d="M522.121 224.631H481.176V225.951H522.121V224.631Z" fill="#263238"/>
<path d="M522.121 303.075H481.176V304.396H522.121V303.075Z" fill="#263238"/>
<path d="M471.123 232.213H441.378V233.534H471.123V232.213Z" fill="#263238"/>
<path d="M471.123 261.151H441.378V262.472H471.123V261.151Z" fill="#263238"/>
<path d="M471.123 272.221H441.378V273.541H471.123V272.221Z" fill="#263238"/>
<path d="M471.123 283.276H441.378V284.597H471.123V283.276Z" fill="#263238"/>
<path d="M471.123 294.343H441.378V295.664H471.123V294.343Z" fill="#263238"/>
<path d="M471.123 305.413H441.378V306.734H471.123V305.413Z" fill="#263238"/>
<path d="M471.123 316.468H441.378V317.789H471.123V316.468Z" fill="#263238"/>
<path d="M471.123 327.538H441.378V328.859H471.123V327.538Z" fill="#263238"/>
<path d="M471.123 338.591H441.378V339.912H471.123V338.591Z" fill="#263238"/>
<path d="M456.251 236.48H441.378V237.801H456.251V236.48Z" fill="#263238"/>
<path d="M431.393 196.339H400.671V197.659H431.393V196.339Z" fill="#263238"/>
<path d="M431.393 204.873H400.671V206.193H431.393V204.873Z" fill="#263238"/>
<path d="M431.393 236.48H400.671V237.801H431.393V236.48Z" fill="#263238"/>
<path d="M441.431 228.093V223.906C450.742 220.578 460.9 220.471 470.278 223.602L471.176 223.906V228.093H441.431Z" fill="white"/>
<path d="M454.825 226.957C457.176 226.688 459.327 225.501 460.808 223.655C461.018 223.349 461.117 222.98 461.088 222.61C461.059 222.24 460.904 221.891 460.649 221.621C458.536 219.125 458.153 213.564 458.18 210.288L455.802 213.339L452.566 217.5C452.791 218.015 453.002 218.53 453.174 219.059C453.303 219.436 453.396 219.825 453.451 220.221C453.586 220.944 453.497 221.692 453.198 222.364C452.898 223.036 452.402 223.602 451.774 223.985C451.531 224.146 451.337 224.37 451.214 224.633C451.09 224.896 451.041 225.189 451.073 225.478C451.104 225.767 451.214 226.042 451.392 226.273C451.569 226.503 451.806 226.681 452.077 226.785C452.965 227.066 453.909 227.125 454.825 226.957Z" fill="#F7978D"/>
<path opacity="0.2" d="M452.568 217.497C452.793 218.012 453.004 218.527 453.176 219.056C453.306 219.433 453.399 219.822 453.453 220.218C454.258 219.83 454.948 219.24 455.457 218.507C455.966 217.773 456.277 216.92 456.359 216.031C456.319 215.516 456.226 215.007 456.082 214.512L452.568 217.497Z" fill="black"/>
<path d="M449.581 209.838C449.424 210.113 449.197 210.341 448.923 210.499C448.65 210.658 448.339 210.742 448.023 210.742C447.706 210.742 447.396 210.658 447.122 210.499C446.848 210.341 446.621 210.113 446.464 209.838C447.587 207.487 446.741 207.263 446.675 205.506C446.561 204.489 446.726 203.46 447.151 202.529C447.577 201.598 448.248 200.801 449.093 200.223H450.902C457.414 201.57 449.581 209.838 449.581 209.838Z" fill="#263238"/>
<path d="M460.058 204.212C459.857 203.394 459.496 202.622 458.997 201.943C458.498 201.264 457.87 200.689 457.149 200.253C456.428 199.816 455.627 199.526 454.794 199.398C453.961 199.271 453.11 199.309 452.292 199.51C447.233 200.62 445.119 207.567 445.278 212.018C445.304 213.302 445.713 214.549 446.454 215.598C446.936 216.276 447.547 216.852 448.253 217.294C448.958 217.736 449.744 218.034 450.565 218.171C451.386 218.308 452.225 218.283 453.036 218.095C453.847 217.907 454.613 217.561 455.29 217.077C458.222 215.043 458.724 212.23 459.992 207.514C460.297 206.438 460.32 205.3 460.058 204.212Z" fill="#F7978D"/>
<path d="M447.495 212.413C449.12 212.086 450.777 211.94 452.435 211.977C452.296 212.648 451.918 213.245 451.371 213.658C450.824 214.072 450.146 214.272 449.463 214.222C448.988 214.256 448.518 214.101 448.155 213.793C447.793 213.484 447.565 213.046 447.521 212.571C447.521 212.571 447.508 212.466 447.495 212.413Z" fill="#263238"/>
<path d="M450.268 213.246C449.545 213.214 448.834 213.438 448.26 213.88C448.61 214.116 449.028 214.232 449.449 214.21C450.169 214.249 450.878 214.024 451.444 213.576C451.099 213.34 450.686 213.224 450.268 213.246Z" fill="#FF5652"/>
<path d="M447.668 212.374C447.706 212.517 447.783 212.647 447.89 212.75C447.997 212.852 448.131 212.923 448.276 212.955C449.355 212.93 450.429 212.807 451.485 212.585C451.658 212.558 451.821 212.487 451.957 212.378C452.094 212.269 452.2 212.127 452.265 211.964C450.724 211.968 449.186 212.105 447.668 212.374Z" fill="white"/>
<path d="M458.312 213.76C458.312 213.76 456.211 209.005 456.383 207.46C456.426 206.539 456.743 205.652 457.294 204.913C457.845 204.174 458.604 203.617 459.474 203.312L461.244 203.682C468.944 206.865 458.312 213.76 458.312 213.76Z" fill="#263238"/>
<path d="M448.672 210.976C448.347 211.003 448.019 210.957 447.714 210.843C447.408 210.729 447.131 210.549 446.902 210.315C447.876 209.451 448.729 208.461 449.438 207.37L448.672 210.976Z" fill="#FF5652"/>
<path d="M459.948 208.688C458.733 208.503 457.438 210.009 456.91 211.092C456.382 212.175 456.725 213.469 458.006 213.179C459.025 212.902 459.916 212.281 460.529 211.422C461.308 210.313 461.15 208.86 459.948 208.688Z" fill="#F7978D"/>
<path d="M452.236 207.264C451.972 207.264 451.694 207.541 451.628 207.898C451.562 208.254 451.708 208.598 451.959 208.637C452.21 208.677 452.447 208.4 452.553 208.017C452.659 207.634 452.487 207.369 452.236 207.264Z" fill="#263238"/>
<path d="M447.89 206.298C447.639 206.298 447.362 206.523 447.283 206.919C447.204 207.315 447.349 207.659 447.6 207.698C447.851 207.738 448.128 207.46 448.207 207.064C448.287 206.668 448.141 206.338 447.89 206.298Z" fill="#263238"/>
<path d="M448.855 204.793C448.823 204.809 448.786 204.818 448.75 204.818C448.713 204.818 448.677 204.809 448.644 204.793C448.362 204.698 448.061 204.669 447.766 204.708C447.471 204.747 447.188 204.853 446.94 205.018C446.898 205.06 446.841 205.083 446.782 205.083C446.722 205.083 446.665 205.06 446.623 205.018C446.586 204.971 446.565 204.913 446.565 204.852C446.565 204.792 446.586 204.734 446.623 204.687C446.931 204.477 447.282 204.34 447.651 204.288C448.02 204.235 448.396 204.268 448.75 204.384C448.806 204.405 448.853 204.446 448.88 204.5C448.907 204.554 448.912 204.616 448.895 204.674C448.891 204.716 448.877 204.757 448.855 204.793Z" fill="#263238"/>
<path d="M453.586 206.695C453.506 206.692 453.43 206.659 453.374 206.603C453.212 206.356 452.995 206.15 452.741 205.999C452.487 205.848 452.202 205.756 451.908 205.731C451.877 205.733 451.847 205.728 451.818 205.718C451.789 205.707 451.763 205.691 451.741 205.67C451.718 205.649 451.701 205.624 451.689 205.596C451.676 205.567 451.67 205.537 451.67 205.507C451.673 205.448 451.698 205.393 451.74 205.351C451.781 205.31 451.836 205.285 451.895 205.282C452.266 205.303 452.626 205.41 452.949 205.593C453.272 205.776 453.549 206.031 453.757 206.339C453.797 206.384 453.819 206.443 453.819 206.504C453.819 206.564 453.797 206.623 453.757 206.669C453.732 206.685 453.704 206.696 453.674 206.701C453.645 206.705 453.614 206.703 453.586 206.695Z" fill="#263238"/>
<path d="M447.838 202.745C447.599 201.886 447.523 200.99 447.613 200.103C447.749 199.661 447.976 199.251 448.281 198.903C448.587 198.555 448.962 198.275 449.383 198.082C450.709 197.652 452.138 197.652 453.464 198.082C453.785 198.131 454.094 198.239 454.376 198.399C454.521 198.478 454.641 198.595 454.725 198.737C454.809 198.879 454.852 199.04 454.851 199.205C454.83 199.369 454.764 199.524 454.662 199.654C454.56 199.785 454.424 199.885 454.27 199.945C453.966 200.09 451.629 200.645 450.572 201.028C449.535 201.37 448.596 201.959 447.838 202.745Z" fill="#263238"/>
<path d="M462.723 200.185C463.576 200.983 464.168 202.02 464.423 203.161C464.677 204.301 464.582 205.492 464.15 206.577C463.779 207.342 463.369 208.087 462.921 208.809L459.646 206.564C458.153 205.767 456.992 204.466 456.37 202.892C456.033 202.064 455.416 201.38 454.627 200.96C453.838 200.54 452.926 200.411 452.051 200.594C451.602 200.686 450.981 200.779 450.73 200.356C450.479 199.934 451.192 199.035 451.694 198.652C453.662 196.909 457.295 195.971 462.723 200.185Z" fill="#263238"/>
<path opacity="0.2" d="M456.305 202.665C455.09 200.552 453.544 200.354 451.497 200.671C451.512 200.418 451.578 200.17 451.692 199.943C451.805 199.716 451.964 199.514 452.157 199.35C453.769 198.029 455.961 201.133 456.305 202.665Z" fill="black"/>
<path d="M450.599 200.328C450.441 200.501 450.328 200.71 450.269 200.936C450.115 201.525 450.083 202.139 450.174 202.74C450.265 203.342 450.477 203.919 450.797 204.436C450.271 203.853 449.894 203.15 449.701 202.389C449.54 201.921 449.455 201.431 449.45 200.936C449.46 200.441 449.658 199.969 450.005 199.615C450.176 199.449 450.392 199.335 450.626 199.288C450.861 199.242 451.103 199.263 451.326 199.351C451.59 199.483 452.039 199.985 451.722 200.223C451.405 200.46 451.022 199.906 450.599 200.328Z" fill="#263238"/>
<path opacity="0.3" d="M447.664 160.825V294.822H300.907V125.73H439.95V160.825H447.664Z" fill="black"/>
<path d="M439.952 107.873H293.46V287.412H439.952V107.873Z" fill="white"/>
<path d="M439.938 107.873H293.445V118.492H439.938V107.873Z" fill="#263238"/>
<path opacity="0.1" d="M439.952 118.492H334.075V287.412H439.952V118.492Z" fill="black"/>
<path opacity="0.1" d="M369.011 122.533H339.279V156.927H369.011V122.533Z" fill="black"/>
<path opacity="0.1" d="M436.385 122.533H374.689V136.692H436.385V122.533Z" fill="black"/>
<path opacity="0.1" d="M436.385 142.77H374.689V219.14H436.385V142.77Z" fill="black"/>
<path opacity="0.1" d="M436.385 225.199H374.689V282.351H436.385V225.199Z" fill="black"/>
<path d="M374.69 170.079H333.731V183.235H374.69V170.079Z" fill="#407BFF"/>
<path d="M334.403 142.77H293.444V155.925H334.403V142.77Z" fill="#407BFF"/>
<path d="M436.385 237.723H374.689V244.552H436.385V237.723Z" fill="black"/>
<path d="M380.883 128.265L382.164 125.663L383.446 128.265L386.312 128.688L384.238 130.709L384.74 133.562L382.164 132.214L379.602 133.575L380.091 130.709L378.017 128.688L380.883 128.265Z" fill="#407BFF"/>
<path d="M392.573 128.265L393.841 125.663L395.135 128.265L398.002 128.688L395.928 130.709L396.417 133.562L393.854 132.214L391.292 133.575L391.781 130.709L389.694 128.688L392.573 128.265Z" fill="#407BFF"/>
<path d="M404.248 128.265L405.53 125.663L406.811 128.265L409.69 128.688L407.617 130.709L408.105 133.562L405.53 132.214L402.967 133.575L403.456 130.709L401.382 128.688L404.248 128.265Z" fill="#407BFF"/>
<path d="M415.938 128.265L417.219 125.663L418.501 128.265L421.367 128.688L419.293 130.709L419.795 133.562L417.219 132.214L414.657 133.575L415.146 130.709L413.059 128.688L415.938 128.265Z" fill="black"/>
<path d="M427.614 128.265L428.895 125.663L430.189 128.265L433.055 128.688L430.982 130.709L431.47 133.562L428.908 132.214L426.332 133.575L426.821 130.709L424.747 128.688L427.614 128.265Z" fill="black"/>
<path d="M403.338 149.505H379.074V150.826H403.338V149.505Z" fill="#263238"/>
<path d="M398.226 160.888H379.074V162.209H398.226V160.888Z" fill="#263238"/>
<path d="M398.226 170.823H379.074V172.144H398.226V170.823Z" fill="#263238"/>
<path d="M398.226 180.754H379.074V182.075H398.226V180.754Z" fill="#263238"/>
<path d="M398.226 190.702H379.074V192.022H398.226V190.702Z" fill="#263238"/>
<path d="M398.226 200.632H379.074V201.953H398.226V200.632Z" fill="#263238"/>
<path d="M398.226 210.58H379.074V211.901H398.226V210.58Z" fill="#263238"/>
<path d="M420.019 160.888H400.867V162.209H420.019V160.888Z" fill="#263238"/>
<path d="M420.019 170.823H400.867V172.144H420.019V170.823Z" fill="#263238"/>
<path d="M420.019 180.754H400.867V182.075H420.019V180.754Z" fill="#263238"/>
<path d="M420.019 190.702H400.867V192.022H420.019V190.702Z" fill="#263238"/>
<path d="M420.019 200.632H400.867V201.953H420.019V200.632Z" fill="#263238"/>
<path d="M420.019 210.58H400.867V211.901H420.019V210.58Z" fill="#263238"/>
<path d="M420.02 153.295H379.074V154.616H420.02V153.295Z" fill="#263238"/>
<path d="M420.02 231.751H379.074V233.072H420.02V231.751Z" fill="#263238"/>
<path d="M369.024 160.888H339.279V162.209H369.024V160.888Z" fill="#263238"/>
<path d="M369.024 189.815H339.279V191.136H369.024V189.815Z" fill="#263238"/>
<path d="M369.024 200.885H339.279V202.206H369.024V200.885Z" fill="#263238"/>
<path d="M369.024 211.953H339.279V213.273H369.024V211.953Z" fill="#263238"/>
<path d="M369.024 223.008H339.279V224.329H369.024V223.008Z" fill="#263238"/>
<path d="M369.024 234.075H339.279V235.396H369.024V234.075Z" fill="#263238"/>
<path d="M369.024 245.145H339.279V246.466H369.024V245.145Z" fill="#263238"/>
<path d="M369.024 256.2H339.279V257.521H369.024V256.2Z" fill="#263238"/>
<path d="M369.024 267.268H339.279V268.588H369.024V267.268Z" fill="#263238"/>
<path d="M354.151 165.157H339.279V166.478H354.151V165.157Z" fill="#263238"/>
<path d="M329.291 125.001H298.569V126.322H329.291V125.001Z" fill="#263238"/>
<path d="M329.291 133.547H298.569V134.868H329.291V133.547Z" fill="#263238"/>
<path d="M329.291 165.157H298.569V166.478H329.291V165.157Z" fill="#263238"/>
<path d="M339.356 156.81V152.623C348.662 149.295 358.816 149.188 368.19 152.32L369.088 152.623V156.81H339.356Z" fill="#263238"/>
<path d="M358.734 141.753L355.604 144.237L351.364 147.618C351.605 148.111 351.757 148.643 351.813 149.19C351.949 149.779 351.867 150.397 351.583 150.931C351.299 151.465 350.832 151.879 350.268 152.096C349.686 152.241 348.947 154.975 352.447 155.345C353.45 155.517 354.479 155.481 355.467 155.238C356.456 154.994 357.384 154.55 358.193 153.931C358.998 153.192 359.249 152.756 358.774 151.686C357.374 148.675 357.942 144.791 358.734 141.753Z" fill="#DD8C6A"/>
<path opacity="0.2" d="M352.394 146.784L355.141 144.275C355.136 144.376 355.136 144.477 355.141 144.579C355.177 145.018 355.177 145.46 355.141 145.899C354.923 146.726 354.507 147.487 353.93 148.117C353.352 148.748 352.63 149.228 351.826 149.518V149.201C351.76 148.693 351.626 148.196 351.43 147.722V147.643L352.394 146.784Z" fill="black"/>
<path d="M350.225 139.531C348.733 135.053 349.551 132.768 347.834 130.285C346.804 129.624 344.572 131.355 345.312 135.013C346.051 138.672 350.225 139.531 350.225 139.531Z" fill="#263238"/>
<path d="M359.512 136.255C359.024 141.115 358.931 143.968 356.369 146.306C352.499 149.833 346.595 147.218 345.657 142.344C344.798 137.893 345.802 130.707 350.663 129.136C352.369 128.572 354.229 128.709 355.834 129.516C357.439 130.324 358.658 131.736 359.222 133.441C359.519 134.348 359.618 135.307 359.512 136.255Z" fill="#DD8C6A"/>
<path d="M359.419 140.616L357.306 140.735L356.897 137.499L354.942 135.94L354.387 130.881C354.387 130.881 358.851 130.881 360.568 130.881C361.176 130.881 362.999 132.823 363.21 133.523C363.46 134.535 363.425 135.597 363.107 136.59C362.79 137.583 362.204 138.469 361.414 139.15C360.802 139.706 360.133 140.198 359.419 140.616Z" fill="#263238"/>
<path d="M359.487 132.888C358.246 133.535 356.701 132.822 355.366 132.452C354.038 132.037 352.689 131.694 351.325 131.422C350.129 131.175 348.885 131.372 347.825 131.976C347.311 132.292 346.931 132.784 346.753 133.36C346.576 133.936 346.614 134.557 346.86 135.107C346.115 134.717 345.475 134.151 344.998 133.458C344.521 132.764 344.22 131.965 344.123 131.129C344.025 130.293 344.133 129.446 344.438 128.661C344.742 127.877 345.234 127.178 345.87 126.627C347.089 125.65 348.6 125.111 350.162 125.095C351.712 125.087 353.258 125.251 354.772 125.584C356.793 125.94 359.699 125.914 361.561 126.772C363.424 127.631 363.252 130.92 359.487 132.888Z" fill="#263238"/>
<path d="M361.35 140.086C361.046 141.135 360.37 142.037 359.448 142.622C358.246 143.362 357.202 142.107 357.308 140.733C357.414 139.36 358.352 137.828 359.659 137.656C360.967 137.484 361.706 138.779 361.35 140.086Z" fill="#DD8C6A"/>
<path d="M351.799 137.776C351.799 138.185 351.588 138.516 351.323 138.529C351.059 138.542 350.861 138.225 350.835 137.816C350.808 137.406 351.059 137.063 351.323 137.063C351.588 137.063 351.799 137.366 351.799 137.776Z" fill="#263238"/>
<path d="M347.202 137.921C347.202 138.33 346.991 138.674 346.727 138.674C346.463 138.674 346.238 138.357 346.238 137.96C346.238 137.564 346.463 137.221 346.727 137.208C346.991 137.194 347.202 137.511 347.202 137.921Z" fill="#263238"/>
<path d="M348.683 138.17C348.34 139.27 347.852 140.318 347.23 141.287C347.479 141.434 347.758 141.523 348.046 141.548C348.334 141.573 348.624 141.534 348.895 141.433L348.683 138.17Z" fill="#FF5652"/>
<path d="M349.316 143.809C349.787 143.81 350.253 143.715 350.687 143.532C351.12 143.348 351.512 143.078 351.839 142.74C351.86 142.715 351.87 142.683 351.868 142.651C351.865 142.619 351.85 142.589 351.826 142.568C351.801 142.547 351.769 142.536 351.737 142.539C351.705 142.541 351.675 142.557 351.654 142.581C351.294 142.945 350.856 143.222 350.373 143.391C349.891 143.561 349.375 143.618 348.867 143.558C348.852 143.555 348.835 143.554 348.819 143.556C348.803 143.559 348.788 143.565 348.775 143.574C348.761 143.582 348.749 143.594 348.74 143.607C348.731 143.62 348.725 143.635 348.722 143.651C348.718 143.684 348.727 143.717 348.746 143.744C348.766 143.771 348.795 143.79 348.828 143.796C348.99 143.815 349.153 143.819 349.316 143.809Z" fill="#263238"/>
<path d="M352.699 136.309C352.738 136.319 352.778 136.319 352.817 136.309C352.84 136.288 352.859 136.262 352.871 136.234C352.883 136.205 352.89 136.175 352.89 136.144C352.89 136.113 352.883 136.082 352.871 136.054C352.859 136.025 352.84 136 352.817 135.979C352.591 135.681 352.293 135.444 351.952 135.289C351.611 135.135 351.236 135.067 350.863 135.094C350.798 135.1 350.739 135.131 350.697 135.181C350.656 135.23 350.634 135.293 350.638 135.358C350.641 135.389 350.651 135.419 350.666 135.447C350.681 135.475 350.701 135.499 350.726 135.519C350.751 135.538 350.779 135.553 350.809 135.562C350.839 135.57 350.871 135.573 350.902 135.569C351.195 135.556 351.486 135.613 351.753 135.735C352.019 135.856 352.253 136.039 352.434 136.269C352.468 136.303 352.512 136.325 352.56 136.332C352.608 136.34 352.656 136.331 352.699 136.309Z" fill="#263238"/>
<path d="M347.177 135.28C347.188 135.241 347.188 135.2 347.177 135.161C347.174 135.13 347.164 135.1 347.149 135.072C347.134 135.045 347.113 135.02 347.089 135.001C347.064 134.981 347.036 134.966 347.006 134.958C346.976 134.949 346.944 134.946 346.913 134.95C346.539 134.968 346.175 135.079 345.855 135.273C345.534 135.467 345.267 135.737 345.077 136.06C345.06 136.087 345.05 136.118 345.046 136.149C345.042 136.181 345.044 136.214 345.053 136.244C345.061 136.275 345.076 136.304 345.096 136.329C345.116 136.354 345.141 136.375 345.169 136.39C345.227 136.418 345.294 136.423 345.355 136.403C345.417 136.383 345.468 136.341 345.499 136.284C345.651 136.031 345.863 135.82 346.117 135.67C346.371 135.521 346.658 135.436 346.952 135.426C347 135.427 347.047 135.413 347.087 135.387C347.127 135.362 347.158 135.324 347.177 135.28Z" fill="#263238"/>
<path opacity="0.3" d="M386.139 197.449H239.369V366.541H386.139V197.449Z" fill="black"/>
<path d="M378.401 179.591H231.908V359.131H378.401V179.591Z" fill="white"/>
<path d="M378.401 179.591H231.908V190.211H378.401V179.591Z" fill="#263238"/>
<path opacity="0.1" d="M378.417 190.225H272.54V359.145H378.417V190.225Z" fill="black"/>
<path opacity="0.1" d="M307.473 194.265H277.741V228.66H307.473V194.265Z" fill="black"/>
<path opacity="0.1" d="M374.849 194.265H313.154V208.425H374.849V194.265Z" fill="black"/>
<path opacity="0.1" d="M374.849 214.488H313.154V290.858H374.849V214.488Z" fill="black"/>
<path opacity="0.1" d="M374.849 296.932H313.154V354.084H374.849V296.932Z" fill="black"/>
<path d="M313.152 241.802H272.193V254.958H313.152V241.802Z" fill="#407BFF"/>
<path d="M272.868 214.488H231.909V227.643H272.868V214.488Z" fill="#407BFF"/>
<path d="M374.849 309.442H313.154V316.27H374.849V309.442Z" fill="black"/>
<path d="M319.345 199.995L320.626 197.393L321.908 199.995L324.787 200.405L322.7 202.426L323.202 205.292L320.626 203.945L318.064 205.292L318.553 202.439L316.479 200.418L319.345 199.995Z" fill="#407BFF"/>
<path d="M331.037 199.995L332.319 197.393L333.6 199.995L336.466 200.405L334.392 202.426L334.881 205.292L332.319 203.945L329.756 205.292L330.245 202.439L328.158 200.418L331.037 199.995Z" fill="#407BFF"/>
<path d="M342.713 199.995L343.994 197.393L345.275 199.995L348.155 200.405L346.081 202.426L346.57 205.292L344.007 203.945L341.432 205.292L341.92 202.439L339.847 200.418L342.713 199.995Z" fill="#407BFF"/>
<path d="M354.401 199.995L355.683 197.393L356.964 199.995L359.83 200.405L357.756 202.426L358.245 205.292L355.683 203.945L353.12 205.292L353.609 202.439L351.535 200.418L354.401 199.995Z" fill="#407BFF"/>
<path d="M366.078 199.995L367.359 197.393L368.654 199.995L371.52 200.405L369.446 202.426L369.935 205.292L367.372 203.945L364.81 205.292L365.285 202.439L363.212 200.418L366.078 199.995Z" fill="black"/>
<path d="M341.802 221.235H317.539V222.556H341.802V221.235Z" fill="#263238"/>
<path d="M336.691 232.609H317.539V233.929H336.691V232.609Z" fill="#263238"/>
<path d="M336.691 242.554H317.539V243.875H336.691V242.554Z" fill="#263238"/>
<path d="M336.691 252.489H317.539V253.81H336.691V252.489Z" fill="#263238"/>
<path d="M336.691 262.418H317.539V263.738H336.691V262.418Z" fill="#263238"/>
<path d="M336.691 272.365H317.539V273.686H336.691V272.365Z" fill="#263238"/>
<path d="M336.691 282.298H317.539V283.619H336.691V282.298Z" fill="#263238"/>
<path d="M358.495 232.609H339.343V233.929H358.495V232.609Z" fill="#263238"/>
<path d="M358.495 242.554H339.343V243.875H358.495V242.554Z" fill="#263238"/>
<path d="M358.495 252.489H339.343V253.81H358.495V252.489Z" fill="#263238"/>
<path d="M358.495 262.418H339.343V263.738H358.495V262.418Z" fill="#263238"/>
<path d="M358.495 272.365H339.343V273.686H358.495V272.365Z" fill="#263238"/>
<path d="M358.495 282.298H339.343V283.619H358.495V282.298Z" fill="#263238"/>
<path d="M358.484 225.028H317.539V226.349H358.484V225.028Z" fill="#263238"/>
<path d="M358.484 303.472H317.539V304.793H358.484V303.472Z" fill="#263238"/>
<path d="M307.486 232.609H277.741V233.929H307.486V232.609Z" fill="#263238"/>
<path d="M307.486 261.548H277.741V262.869H307.486V261.548Z" fill="#263238"/>
<path d="M307.486 272.618H277.741V273.939H307.486V272.618Z" fill="#263238"/>
<path d="M307.486 283.671H277.741V284.992H307.486V283.671Z" fill="#263238"/>
<path d="M307.486 294.741H277.741V296.061H307.486V294.741Z" fill="#263238"/>
<path d="M307.486 305.794H277.741V307.114H307.486V305.794Z" fill="#263238"/>
<path d="M307.486 316.863H277.741V318.184H307.486V316.863Z" fill="#263238"/>
<path d="M307.486 327.931H277.741V329.251H307.486V327.931Z" fill="#263238"/>
<path d="M307.486 338.988H277.741V340.309H307.486V338.988Z" fill="#263238"/>
<path d="M292.613 236.876H277.741V238.196H292.613V236.876Z" fill="#263238"/>
<path d="M267.755 196.736H237.033V198.057H267.755V196.736Z" fill="#263238"/>
<path d="M267.755 205.268H237.033V206.588H267.755V205.268Z" fill="#263238"/>
<path d="M267.755 236.876H237.033V238.196H267.755V236.876Z" fill="#263238"/>
<path d="M277.741 228.66V224.459C287.054 221.145 297.207 221.038 306.588 224.156L307.486 224.459V228.66H277.741Z" fill="#407BFF"/>
<path d="M290.013 198.597C289.066 198.332 288.07 198.292 287.105 198.48C286.139 198.668 285.231 199.079 284.453 199.681C282.893 200.891 281.692 202.503 280.979 204.343C280.706 204.817 280.563 205.355 280.563 205.902C280.563 206.449 280.706 206.986 280.979 207.46C281.679 208.345 283.026 208.292 284.162 208.16C285.919 204.832 288.006 201.794 290.013 198.597Z" fill="#263238"/>
<path d="M288.968 218.673C289.814 220.707 290.289 222.979 287.648 224.802C287.103 225.178 286.703 225.727 286.512 226.36C286.234 227.391 286.591 228.553 290.408 227.364C295.929 225.647 296.299 222.305 296.299 222.305C293.948 220.918 293.657 215.199 293.869 212.003L288.968 218.673Z" fill="#FFB573"/>
<path opacity="0.2" d="M292.52 216.52C292.52 217.92 290.697 219.677 289.456 220.245C289.336 219.701 289.164 219.17 288.941 218.66L291.873 214.698C292.216 215.252 292.436 215.874 292.52 216.52Z" fill="black"/>
<path d="M296.934 204.316C296.672 203.446 296.24 202.637 295.664 201.935C295.088 201.232 294.379 200.65 293.578 200.222C292.777 199.794 291.899 199.528 290.995 199.439C290.091 199.351 289.178 199.441 288.309 199.706C283.145 201.238 281.705 208.688 282.3 213.35C282.973 218.568 289.009 220.654 293.249 217.088C296.089 214.711 296.327 212.558 297.132 207.512C297.312 206.446 297.244 205.352 296.934 204.316Z" fill="#FFB573"/>
<path d="M285.388 211.791C285.119 211.83 284.844 211.811 284.582 211.736C284.32 211.661 284.077 211.531 283.869 211.355C284.603 210.566 285.221 209.676 285.705 208.714L285.388 211.791Z" fill="#ED893E"/>
<path d="M289.272 212.52C289.292 212.496 289.304 212.465 289.304 212.434C289.304 212.402 289.292 212.372 289.272 212.348C289.261 212.336 289.247 212.327 289.233 212.321C289.218 212.314 289.202 212.311 289.186 212.311C289.17 212.311 289.154 212.314 289.139 212.321C289.125 212.327 289.111 212.336 289.1 212.348C288.75 212.726 288.314 213.016 287.83 213.193C287.345 213.37 286.825 213.429 286.313 213.365C286.281 213.367 286.251 213.38 286.227 213.402C286.203 213.423 286.187 213.452 286.181 213.484C286.181 213.515 286.191 213.545 286.21 213.569C286.229 213.593 286.257 213.61 286.287 213.616C286.485 213.629 286.683 213.629 286.881 213.616C287.791 213.576 288.649 213.183 289.272 212.52Z" fill="#263238"/>
<path d="M285.321 200.314C286.249 200.25 287.174 200.468 287.976 200.939C288.777 201.411 289.417 202.114 289.812 202.955C290.129 203.779 290.359 204.633 290.499 205.505C290.641 206.382 291.02 207.204 291.595 207.882C291.892 208.209 292.284 208.434 292.716 208.524C293.148 208.614 293.597 208.565 293.999 208.384C294.238 209.16 294.68 209.858 295.279 210.406C295.878 210.954 296.613 211.332 297.407 211.501C296.271 213.152 294.858 214.883 293.722 216.534C294.131 217.854 294.171 218.066 294.58 219.347C295.996 218.894 297.308 218.167 298.441 217.206C299.575 216.245 300.507 215.069 301.185 213.747C302.505 211.105 302.796 207.79 300.286 207.71C301.171 205.927 299.547 202.189 298.213 200.71C296.973 199.598 295.496 198.782 293.894 198.324C292.292 197.867 290.607 197.779 288.967 198.068C287.526 198.367 286.236 199.162 285.321 200.314Z" fill="#263238"/>
<path d="M298.332 211.08C298.376 210.641 298.246 210.202 297.969 209.858C297.692 209.514 297.291 209.294 296.853 209.244C295.532 209.138 294.62 210.657 294.356 211.753C294.092 212.85 294.753 214.052 295.994 213.629C296.924 213.304 297.688 212.625 298.121 211.74C298.238 211.538 298.31 211.312 298.332 211.08Z" fill="#FFB573"/>
<path d="M290.263 206.219C290.302 206.229 290.343 206.229 290.382 206.219C290.426 206.171 290.451 206.107 290.451 206.041C290.451 205.975 290.426 205.911 290.382 205.863C290.093 205.493 289.718 205.199 289.29 205.008C288.862 204.817 288.393 204.734 287.925 204.766C287.893 204.77 287.861 204.779 287.832 204.795C287.804 204.811 287.779 204.833 287.759 204.859C287.739 204.885 287.725 204.915 287.717 204.947C287.709 204.978 287.708 205.011 287.714 205.044C287.717 205.075 287.726 205.105 287.742 205.133C287.757 205.161 287.777 205.185 287.802 205.205C287.826 205.224 287.854 205.239 287.885 205.248C287.915 205.256 287.947 205.259 287.978 205.255C288.364 205.241 288.747 205.317 289.098 205.477C289.449 205.638 289.758 205.878 289.999 206.18C290.035 206.21 290.078 206.231 290.125 206.238C290.172 206.245 290.22 206.238 290.263 206.219Z" fill="#263238"/>
<path d="M282.616 206.483C282.657 206.472 282.694 206.449 282.722 206.417C282.958 206.112 283.263 205.867 283.612 205.701C283.961 205.536 284.344 205.456 284.729 205.466C284.762 205.47 284.796 205.467 284.828 205.457C284.859 205.448 284.889 205.432 284.915 205.411C284.941 205.391 284.962 205.365 284.978 205.336C284.994 205.306 285.003 205.274 285.007 205.241C285.007 205.174 284.984 205.109 284.94 205.058C284.896 205.007 284.835 204.974 284.769 204.964C284.301 204.946 283.835 205.04 283.41 205.238C282.986 205.435 282.614 205.731 282.325 206.1C282.282 206.139 282.254 206.193 282.248 206.252C282.241 206.31 282.257 206.369 282.292 206.416C282.326 206.464 282.377 206.497 282.434 206.509C282.492 206.522 282.552 206.512 282.603 206.483H282.616Z" fill="#263238"/>
<path d="M289.046 207.472C289.046 207.921 288.768 208.291 288.465 208.278C288.161 208.265 287.936 207.882 287.963 207.419C287.989 206.957 288.24 206.614 288.531 206.614C288.821 206.614 289.059 207.01 289.046 207.472Z" fill="#263238"/>
<path d="M284.45 207.857C284.45 208.293 284.186 208.636 283.895 208.623C283.605 208.61 283.407 208.253 283.42 207.804C283.433 207.355 283.684 207.025 283.974 207.038C284.265 207.051 284.476 207.368 284.45 207.857Z" fill="#263238"/>
<path d="M284.095 207.063L283.065 206.72C283.065 206.72 283.567 207.565 284.095 207.063Z" fill="#263238"/>
<path d="M288.663 206.654L287.58 206.284C287.58 206.284 288.109 207.169 288.663 206.654Z" fill="#263238"/>
<path d="M120.341 257.559C110.117 257.559 110.117 248.802 110.117 248.802L196.962 155.446L197.411 153.425L202.39 158.061C202.352 158.131 202.308 158.197 202.258 158.259C201.981 158.774 126.099 257.559 120.341 257.559Z" fill="#263238"/>
<g opacity="0.5">
<path opacity="0.4" d="M251.089 134.114C239.69 151.734 220.604 165.259 208.598 158.985C208.659 158.927 208.704 158.855 208.73 158.774L202.126 155.181C197.701 151.219 195.205 145.394 194.571 138.552C193.567 127.986 196.909 115.2 204.2 103.352C217.051 82.4569 237.999 73.1715 247.668 78.9435C249.248 79.8871 250.774 80.919 252.238 82.0342H252.304C253.583 82.8751 254.798 83.8111 255.936 84.8344C256.475 85.3629 256.962 85.9424 257.389 86.5646C259.851 90.155 261.252 94.3664 261.431 98.7162C262.329 108.966 258.935 122.029 251.089 134.114Z" fill="white"/>
</g>
<path opacity="0.2" d="M261.445 98.4647L202.14 154.864C197.716 150.901 195.219 145.077 194.572 138.235V138.129L257.364 86.3131C259.834 89.9024 261.248 94.1122 261.445 98.4647Z" fill="white"/>
<path d="M255.608 135.91C270.018 112.637 268.222 85.3618 251.527 75.033C234.831 64.7041 209.643 75.2443 195.22 98.504C181.179 121.196 182.514 147.625 197.98 158.535C198.403 158.866 198.839 159.13 199.301 159.42C201.106 160.542 203.045 161.429 205.073 162.062C221.359 167.293 242.756 156.66 255.608 135.91ZM207.266 157.677C206.341 157.422 205.454 157.049 204.624 156.567C204.494 156.515 204.37 156.448 204.254 156.369L203.7 156.013L203.541 155.907C202.747 155.403 202 154.828 201.309 154.19C191.059 144.865 192.063 122.49 204.201 103.034C217.132 82.1786 238.292 72.9461 247.207 78.2161C248.658 79.0812 250.06 80.0247 251.408 81.0427C252.098 81.52 252.735 82.069 253.31 82.6805C261.235 90.9621 258.791 111.329 246.904 130.521C235.016 149.712 218.229 160.873 207.266 157.677Z" fill="#263238"/>
<g opacity="0.4">
<path opacity="0.4" d="M251.049 133.77C239.637 151.43 220.564 164.955 208.558 158.655C208.619 158.597 208.665 158.524 208.69 158.443L207.277 157.664C218.213 160.874 235.173 149.581 246.981 130.548C258.789 111.515 261.351 91.0286 253.374 82.7338C253.113 82.4488 252.835 82.1797 252.541 81.9281C253.743 82.7201 254.883 83.6033 255.949 84.5697C256.486 85.0869 256.969 85.6578 257.389 86.2736C259.837 89.868 261.244 94.0685 261.457 98.412C262.263 108.635 258.881 121.725 251.049 133.77Z" fill="black"/>
</g>
<path d="M85.8159 340.322C86.331 343.783 89.7784 345.923 93.0408 347.27C98.8745 349.688 105.08 351.086 111.387 351.404C116.166 334.454 119.498 317.128 121.346 299.615C105.774 309.283 83.1082 322.201 85.8159 340.322Z" fill="#263238"/>
<path opacity="0.2" d="M85.8159 340.322C86.331 343.783 89.7784 345.923 93.0408 347.27C98.8745 349.688 105.08 351.086 111.387 351.404C116.166 334.454 119.498 317.128 121.346 299.615C105.774 309.283 83.1082 322.201 85.8159 340.322Z" fill="black"/>
<path d="M164.667 131.183C165.156 131.103 165.684 131.632 165.83 132.385C165.975 133.137 165.698 133.851 165.196 133.93C164.694 134.009 164.179 133.494 164.033 132.728C163.888 131.962 164.165 131.275 164.667 131.183Z" fill="#263238"/>
<path d="M166.002 141.22C166.646 141.268 167.293 141.174 167.898 140.946C168.502 140.718 169.05 140.361 169.502 139.899C167.626 138.192 165.987 136.242 164.628 134.101L166.002 141.22Z" fill="#B74D3C"/>
<path d="M160.769 128.975C161.132 128.526 161.597 128.172 162.126 127.942C162.655 127.712 163.232 127.613 163.807 127.654H163.966C164.086 127.654 164.201 127.607 164.288 127.523C164.374 127.439 164.424 127.325 164.428 127.205C164.43 127.144 164.419 127.083 164.398 127.027C164.376 126.97 164.344 126.918 164.302 126.874C164.26 126.83 164.21 126.794 164.155 126.769C164.099 126.745 164.039 126.731 163.979 126.729C163.266 126.649 162.543 126.74 161.873 126.995C161.202 127.25 160.601 127.661 160.122 128.195C160.084 128.234 160.054 128.279 160.034 128.329C160.013 128.379 160.003 128.432 160.003 128.486C159.999 128.546 160.008 128.606 160.028 128.663C160.048 128.719 160.08 128.772 160.12 128.816C160.161 128.86 160.21 128.896 160.265 128.921C160.32 128.946 160.379 128.96 160.439 128.961C160.544 129.005 160.661 129.01 160.769 128.975Z" fill="#263238"/>
<path d="M154.8 174.939C141.79 174.807 139.941 167.688 139.941 167.688C143.903 163.989 144.234 157.042 143.534 150.834C144.548 152.324 145.834 153.61 147.324 154.625C148.683 155.589 150.23 156.256 151.864 156.584C153.498 156.912 155.182 156.892 156.808 156.527C156.865 156.538 156.923 156.538 156.98 156.527C156.941 156.647 156.914 156.771 156.9 156.897C156.015 161.85 156.597 167.159 161.774 168.784C161.761 168.771 169.131 175.084 154.8 174.939Z" fill="#CB7A63"/>
<path d="M157.376 154.653C157.209 155.252 157.076 155.861 156.98 156.476C156.924 156.487 156.865 156.487 156.809 156.476C155.183 156.841 153.498 156.861 151.865 156.533C150.231 156.205 148.684 155.538 147.325 154.574C145.835 153.56 144.549 152.274 143.534 150.783C143.363 149.211 143.112 147.679 142.847 146.266L156.848 154.297L157.376 154.653Z" fill="#CB7A63"/>
<path d="M135.968 168.798C135.968 168.798 138.147 162.498 141.251 160.556C144.355 158.615 157.973 160.979 160.086 161.877C162.199 162.775 164.26 167.715 164.26 167.715L135.968 168.798Z" fill="#263238"/>
<path opacity="0.5" d="M135.968 168.798C135.968 168.798 138.147 162.498 141.251 160.556C144.355 158.615 157.973 160.979 160.086 161.877C162.199 162.775 164.26 167.715 164.26 167.715L135.968 168.798Z" fill="white"/>
<path d="M166.912 144.229C166.826 146.462 166.175 148.636 165.02 150.549C163.865 152.462 162.244 154.05 160.308 155.166H160.229C159.233 155.777 158.144 156.223 157.006 156.487C156.949 156.498 156.891 156.498 156.834 156.487C155.208 156.852 153.524 156.871 151.89 156.544C150.256 156.216 148.71 155.549 147.351 154.585C145.86 153.57 144.574 152.284 143.56 150.794C141.077 147.254 140.113 142.565 138.422 135.961C137.851 133.826 137.834 131.58 138.373 129.436C138.911 127.292 139.988 125.321 141.501 123.71C143.013 122.098 144.912 120.898 147.017 120.225C149.123 119.551 151.365 119.426 153.532 119.86C163.359 121.868 167.295 135.446 166.912 144.229Z" fill="#CB7A63"/>
<path opacity="0.2" d="M160.203 155.18C159.207 155.791 158.119 156.237 156.98 156.501L157.456 150.716C157.456 150.716 159.516 155.18 160.203 155.18Z" fill="black"/>
<path d="M135.965 132.555C134.645 135.196 131.686 138.195 130.431 140.823C129.621 142.151 129.234 143.694 129.322 145.248C129.44 146.055 129.87 146.784 130.519 147.278C131.169 147.772 131.986 147.991 132.796 147.889C131.475 149.765 132.452 152.856 134.473 154.137C135.517 154.761 136.743 155.005 137.947 154.83C139.15 154.654 140.255 154.069 141.077 153.173C142.398 154.599 143.389 155.656 145.396 155.682C146.378 155.692 147.352 155.504 148.259 155.13C149.167 154.755 149.99 154.202 150.679 153.503C151.587 154.472 152.77 155.139 154.069 155.416C155.368 155.692 156.72 155.564 157.944 155.048C159.103 154.499 160.037 153.567 160.59 152.411C161.143 151.254 161.281 149.942 160.982 148.695C160.262 146.515 159.927 144.227 159.991 141.932C159.991 141.932 162.831 137.759 161.669 135.236L160.427 127.311C158.212 125.631 155.478 124.78 152.7 124.907C149.931 125.039 147.206 125.646 144.643 126.703C141.064 128.117 137.511 129.305 135.965 132.555Z" fill="#263238"/>
<path d="M157.563 132.08C160.271 132.939 161.618 137.007 161.684 139.569C161.764 142.396 159.835 144.139 157.405 142.211C155.581 140.711 154.296 138.656 153.746 136.36C153.139 133.612 154.843 131.274 157.563 132.08Z" fill="#CB7A63"/>
<path d="M131.885 466.642C130.564 466.576 129.323 466.325 128.966 465.717C128.868 465.555 128.825 465.366 128.844 465.178C128.863 464.99 128.943 464.813 129.072 464.674C129.164 464.535 129.284 464.417 129.426 464.328C129.567 464.239 129.725 464.182 129.89 464.159C131.621 463.789 134.989 465.995 135.174 466.087C135.213 466.115 135.242 466.154 135.259 466.198C135.275 466.243 135.278 466.292 135.266 466.338C135.257 466.388 135.231 466.434 135.193 466.468C135.155 466.501 135.106 466.521 135.055 466.523C134.004 466.655 132.943 466.694 131.885 466.642ZM130.458 464.595C130.305 464.575 130.15 464.575 129.996 464.595C129.893 464.608 129.793 464.643 129.705 464.698C129.616 464.753 129.54 464.825 129.481 464.912C129.296 465.202 129.336 465.334 129.481 465.44C129.89 466.114 132.466 466.259 134.381 466.113C133.205 465.356 131.889 464.84 130.511 464.595H130.458Z" fill="#407BFF"/>
<path d="M134.988 466.501H134.882C133.707 465.88 131.488 463.595 131.792 462.432C131.792 462.155 132.082 461.838 132.756 461.798C132.997 461.785 133.238 461.82 133.465 461.902C133.691 461.984 133.9 462.11 134.077 462.274C135.331 463.423 135.278 466.157 135.278 466.236C135.273 466.279 135.258 466.32 135.235 466.356C135.212 466.393 135.182 466.424 135.146 466.448C135.102 466.485 135.046 466.504 134.988 466.501ZM132.888 462.287H132.703C132.267 462.287 132.214 462.485 132.201 462.538C132.029 463.225 133.522 465.021 134.697 465.853C134.689 464.703 134.319 463.585 133.641 462.657C133.538 462.539 133.412 462.444 133.272 462.375C133.131 462.307 132.978 462.268 132.822 462.261L132.888 462.287Z" fill="#407BFF"/>
<path d="M147.405 443.477L137.287 442.936L136.033 466.314L146.203 466.856L147.405 443.477Z" fill="#CB7A63"/>
<path d="M133.668 465.799C126.364 469.656 124.224 469.762 116.062 471.083C114.278 471.373 115.005 475.653 119.192 475.877C126.126 476.26 126.879 475.97 132.783 476.287C137.842 476.564 143.64 477.106 147.656 477.383C147.778 477.403 147.903 477.403 148.026 477.383C148.427 477.327 148.79 477.116 149.037 476.795C149.284 476.474 149.395 476.068 149.346 475.666L148.197 466.539C148.168 466.342 148.071 466.162 147.925 466.027C147.778 465.893 147.59 465.812 147.392 465.799L136.257 465.205C135.356 465.167 134.462 465.372 133.668 465.799Z" fill="#263238"/>
<path opacity="0.2" d="M147.417 443.49L146.664 457.609L136.507 457.068L137.286 442.948L147.417 443.49Z" fill="black"/>
<path d="M161.486 239.622C161.486 239.622 160.628 307.076 158.343 338.869C156.203 368.482 149.585 454.797 149.585 454.797L132.415 453.86C132.415 453.86 128.809 365.18 128.452 334.985C128.135 306.376 126.735 238.328 126.735 238.328L161.486 239.622Z" fill="#407BFF"/>
<path d="M161.486 239.622C161.486 239.622 160.628 307.076 158.343 338.869C156.203 368.482 149.585 454.797 149.585 454.797L132.415 453.86C132.415 453.86 128.809 365.18 128.452 334.985C128.135 306.376 126.735 238.328 126.735 238.328L161.486 239.622Z" fill="#263238"/>
<path opacity="0.6" d="M161.486 239.622C161.486 239.622 160.628 307.076 158.343 338.869C156.203 368.482 149.585 454.797 149.585 454.797L132.415 453.86C132.415 453.86 128.809 365.18 128.452 334.985C128.135 306.376 126.735 238.328 126.735 238.328L161.486 239.622Z" fill="white"/>
<path d="M152.687 448.917L151.525 455.178L130.616 454.055C130.616 454.055 130.273 446.936 130.352 446.936L152.687 448.917Z" fill="#263238"/>
<g opacity="0.5">
<path opacity="0.5" d="M152.687 448.919L151.525 455.18L130.616 454.057C130.616 454.057 130.273 446.938 130.352 446.938L152.687 448.919Z" fill="white"/>
</g>
<path d="M236.51 464.755C236.391 463.434 236.444 462.18 236.985 461.691C237.128 461.565 237.306 461.486 237.495 461.464C237.684 461.443 237.875 461.481 238.042 461.572C238.187 461.641 238.317 461.739 238.423 461.859C238.53 461.979 238.611 462.12 238.663 462.272C239.284 463.883 237.619 467.674 237.54 467.859C237.523 467.907 237.49 467.947 237.447 467.973C237.403 467.999 237.353 468.01 237.302 468.004C237.254 468.001 237.207 467.982 237.17 467.952C237.132 467.921 237.104 467.88 237.091 467.833C236.811 466.825 236.617 465.796 236.51 464.755ZM238.333 462.919C238.346 462.765 238.346 462.611 238.333 462.457C238.306 462.36 238.258 462.27 238.192 462.195C238.125 462.119 238.042 462.06 237.95 462.021C237.633 461.889 237.487 462.021 237.421 462.087C236.814 462.629 237.038 465.178 237.487 467.027C238.035 465.725 238.336 464.332 238.372 462.919H238.333Z" fill="#407BFF"/>
<path d="M237.05 467.767C237.043 467.737 237.043 467.705 237.05 467.675C237.486 466.354 239.44 463.712 240.603 463.712C240.88 463.712 241.237 463.884 241.356 464.518C241.407 464.758 241.408 465.006 241.361 465.247C241.313 465.487 241.217 465.716 241.078 465.918C240.154 467.384 237.433 467.926 237.327 467.952C237.286 467.96 237.244 467.957 237.204 467.943C237.165 467.929 237.13 467.905 237.103 467.873C237.073 467.845 237.054 467.808 237.05 467.767ZM240.893 464.835V464.677C240.893 464.254 240.629 464.241 240.576 464.254C239.876 464.254 238.318 466.063 237.684 467.398C238.829 467.146 239.874 466.557 240.682 465.707C240.866 465.449 240.959 465.138 240.946 464.822L240.893 464.835Z" fill="#407BFF"/>
<path d="M229.627 444.915L219.866 446.698L227.408 469.615L237.248 467.818L229.627 444.915Z" fill="#CB7A63"/>
<path d="M239.505 466.248C242.464 469.115 244.022 470.581 252 472.166C253.757 472.509 252.595 476.775 248.408 476.868C241.486 477.026 245.277 476.617 239.373 476.749C234.328 476.855 228.529 477.224 224.514 477.383C224.378 477.403 224.24 477.403 224.104 477.383C223.915 477.342 223.736 477.265 223.577 477.154C223.418 477.043 223.283 476.902 223.18 476.738C223.077 476.574 223.007 476.392 222.975 476.201C222.943 476.01 222.95 475.815 222.995 475.626L225.029 466.513C225.071 466.312 225.181 466.132 225.339 466.002C225.498 465.873 225.696 465.801 225.901 465.799L236.996 465.548C237.439 465.491 237.89 465.524 238.321 465.644C238.753 465.764 239.155 465.97 239.505 466.248Z" fill="#263238"/>
<path opacity="0.2" d="M229.64 444.927L233.55 456.696L223.749 458.492L219.866 446.697L229.64 444.927Z" fill="black"/>
<path opacity="0.3" d="M161.192 283.974C159.871 306.824 158.722 334.165 157.784 349.368C157.784 350.108 157.678 350.861 157.652 351.679C153.425 327.561 147.085 288.28 158.775 284.225C159.561 284.008 160.378 283.924 161.192 283.974Z" fill="black"/>
<path d="M131.383 242.752C131.383 242.752 133.655 266.249 137.313 276.565C142.491 291.16 148.95 295.862 153.916 304.593C162.673 319.98 167.547 333.202 173.451 345.446C191.943 383.75 217.54 451.204 217.54 451.204L236.032 449.883L170.532 241.629L131.383 242.752Z" fill="#263238"/>
<path opacity="0.6" d="M131.383 242.752C131.383 242.752 133.655 266.249 137.313 276.565C142.491 291.16 148.95 295.862 153.916 304.593C162.673 319.98 167.547 333.202 173.451 345.446C191.943 383.75 217.54 451.204 217.54 451.204L236.032 449.883L170.532 241.629L131.383 242.752Z" fill="white"/>
<path d="M239.307 445.96L239.531 452.314L218.042 455.523C218.042 455.523 216.1 448.655 216.179 448.655L239.307 445.96Z" fill="#263238"/>
<g opacity="0.5">
<path opacity="0.5" d="M239.307 445.963L239.531 452.316L218.042 455.526C218.042 455.526 216.1 448.657 216.179 448.657L239.307 445.963Z" fill="white"/>
</g>
<path d="M136.955 225.288C136.057 227.534 133.943 232.011 130.707 234.653C130.345 234.952 129.908 235.149 129.444 235.223C128.98 235.298 128.504 235.247 128.066 235.076C128.066 235.076 122.373 231.562 121.924 229.977C121.905 229.881 121.905 229.783 121.924 229.687L123.337 223.083L123.509 223.017C124.539 222.673 130.113 220.969 132.464 221.92L136.149 223.4C136.339 223.453 136.513 223.549 136.661 223.679C136.809 223.809 136.925 223.971 137.003 224.152C137.08 224.333 137.116 224.529 137.107 224.725C137.099 224.922 137.047 225.114 136.955 225.288Z" fill="#CB7A63"/>
<path d="M127.67 184.648L108.347 203.47L123.55 223.071L123.378 223.137L121.965 229.741C121.945 229.837 121.945 229.936 121.965 230.032C121.007 230.385 119.973 230.481 118.966 230.309C118.966 230.309 90.1326 206.891 91.7573 202.849C93.3045 199.65 95.0698 196.561 97.0406 193.603L97.2387 193.3C99.7879 189.073 115.823 165.074 127.882 165.206C137.418 165.285 136.903 176.261 127.67 184.648Z" fill="#407BFF"/>
<path opacity="0.5" d="M127.672 184.648L108.348 203.47L123.551 223.071L123.379 223.137L121.966 229.741C121.947 229.837 121.947 229.936 121.966 230.032C121.008 230.385 119.974 230.481 118.968 230.309C118.968 230.309 89.7775 210.272 91.7587 202.849C92.3135 200.723 94.8494 196.985 97.042 193.603L97.2401 193.3C99.7893 189.073 115.824 165.074 127.883 165.206C137.42 165.285 136.904 176.261 127.672 184.648Z" fill="black"/>
<path d="M121.979 229.98C121.96 229.884 121.96 229.786 121.979 229.69L123.393 223.086L123.564 223.02L124.04 223.218C124.04 223.218 125.572 228.607 121.979 229.98Z" fill="#263238"/>
<path d="M217.421 341.375C187.729 348.6 190.661 324.205 149.848 340.055C137.828 344.73 130.841 332.658 124.343 330.677C111.385 326.714 96.9752 327.929 85.5632 335.234C93.7934 301.894 107.086 270.014 124.977 240.702C125.914 233.808 128.662 219.226 121.199 178.439C119.878 170.949 127.592 164.53 135.187 164.134L139.981 163.777C147.231 163.436 154.494 163.511 161.735 164.002C164.152 164.24 166.503 164.61 168.59 165.006C171.3 165.513 173.792 166.832 175.736 168.787C177.679 170.743 178.983 173.242 179.474 175.955C180.765 183.29 181.208 190.749 180.795 198.185C180.504 205.938 179.606 216.069 177.757 230.07C177.294 233.583 176.766 237.347 176.172 241.389C176.172 241.389 195.641 288.133 217.421 341.375Z" fill="#407BFF"/>
<path opacity="0.5" d="M217.421 341.375C187.729 348.6 190.661 324.205 149.848 340.055C137.828 344.73 130.841 332.658 124.343 330.677C111.385 326.714 96.9752 327.929 85.5632 335.234C93.7934 301.894 107.086 270.014 124.977 240.702C125.914 233.808 128.662 219.226 121.199 178.439C119.878 170.949 127.592 164.53 135.187 164.134L139.981 163.777C147.231 163.436 154.494 163.511 161.735 164.002C164.152 164.24 166.503 164.61 168.59 165.006C171.3 165.513 173.792 166.832 175.736 168.787C177.679 170.743 178.983 173.242 179.474 175.955C180.765 183.29 181.208 190.749 180.795 198.185C180.504 205.938 179.606 216.069 177.757 230.07C177.294 233.583 176.766 237.347 176.172 241.389C176.172 241.389 195.641 288.133 217.421 341.375Z" fill="black"/>
<path opacity="0.2" d="M180.795 198.211C180.504 205.965 179.606 216.095 177.757 230.096C176.621 217.839 174.6 205.806 167.335 181.226L180.544 185.439C180.808 189.52 180.847 193.866 180.795 198.211Z" fill="black"/>
<path d="M174.229 144.851C174.08 144.452 173.81 144.111 173.457 143.874C173.104 143.637 172.685 143.517 172.261 143.53C169.474 143.305 168.021 143.094 165.419 144.124C165.223 144.19 165.049 144.309 164.917 144.468C164.843 144.629 164.807 144.805 164.811 144.983C164.811 146.528 164.719 148.073 164.666 149.606C164.598 149.948 164.646 150.304 164.801 150.617C164.956 150.93 165.211 151.182 165.524 151.336C166.951 152.34 173.7 155.774 173.7 155.774C175.021 155.919 177.874 153.37 179.063 152.696L174.229 144.851Z" fill="#CB7A63"/>
<path d="M171.867 155.945L179.449 151.877C179.449 151.877 199.103 176.972 200.265 178.993C209.511 195.279 196.804 194.843 193.199 192.598C184.917 187.46 185.723 180.036 182.473 173.538L171.867 155.945Z" fill="#407BFF"/>
<g opacity="0.5">
<path opacity="0.5" d="M171.865 155.947L179.446 151.879C179.446 151.879 199.1 176.975 200.263 178.995C209.508 195.281 196.802 194.845 193.196 192.6C184.915 187.462 185.72 180.039 182.471 173.54L171.865 155.947Z" fill="black"/>
</g>
<path d="M176.661 168.466C185.224 174.839 194.203 180.633 203.539 185.809L204.002 187.75C204.231 188.691 204.206 189.676 203.929 190.605C203.653 191.533 203.135 192.371 202.428 193.033C201.721 193.696 200.852 194.159 199.907 194.374C198.963 194.59 197.979 194.551 197.054 194.262L194.756 193.549C194.756 193.549 164.668 185.32 164.007 176.655C160.005 171.702 167.455 160.039 176.661 168.466Z" fill="#407BFF"/>
<path opacity="0.5" d="M176.661 168.466C185.224 174.839 194.203 180.633 203.539 185.809L204.002 187.75C204.231 188.691 204.206 189.676 203.929 190.605C203.653 191.533 203.135 192.371 202.428 193.033C201.721 193.696 200.852 194.159 199.907 194.374C198.963 194.59 197.979 194.551 197.054 194.262L194.756 193.549C194.756 193.549 164.668 185.32 164.007 176.655C160.005 171.702 167.455 160.039 176.661 168.466Z" fill="black"/>
<path d="M164.523 125.158L160.323 126.162L133.022 132.674C132.953 132.471 132.9 132.264 132.863 132.053C132.565 130.827 132.349 129.583 132.216 128.328C132.123 127.457 132.057 126.585 132.044 125.687C131.886 116.441 136.39 108.516 143.509 106.839C150.628 105.161 158.197 110.127 162.238 118.475C162.595 119.215 162.925 120.007 163.229 120.8C163.697 122 164.081 123.231 164.378 124.485C164.404 124.762 164.484 124.974 164.523 125.158Z" fill="#263238"/>
<path opacity="0.5" d="M164.404 125.159L160.204 126.189L132.902 132.701C132.902 132.516 132.797 132.291 132.744 132.08C132.451 130.854 132.239 129.609 132.11 128.355L163.083 120.866C163.551 122.066 163.935 123.298 164.232 124.551C164.404 124.762 164.404 124.974 164.404 125.159Z" fill="black"/>
<path d="M174.628 125.37C174.721 125.762 174.736 126.169 174.671 126.567C174.606 126.965 174.462 127.346 174.248 127.687C174.034 128.029 173.754 128.325 173.425 128.558C173.095 128.79 172.723 128.955 172.329 129.042L129.27 139.331C128.484 139.518 127.656 139.385 126.967 138.961C126.279 138.538 125.787 137.858 125.599 137.072C125.497 136.676 125.478 136.263 125.541 135.859C125.605 135.455 125.75 135.068 125.968 134.721C126.4 134.05 127.078 133.576 127.857 133.401L170.956 123.098C171.346 123.006 171.751 122.992 172.146 123.056C172.542 123.12 172.922 123.262 173.263 123.473C173.604 123.684 173.9 123.96 174.134 124.285C174.368 124.611 174.536 124.98 174.628 125.37Z" fill="#263238"/>
</svg>
