<svg width="52" height="45" viewBox="0 0 52 45" fill="none" xmlns="http://www.w3.org/2000/svg">
<g id="Group">
<path id="Vector" d="M26.4171 2.56079e-06C26.1768 -0.000426393 25.9395 0.0530399 25.7226 0.156465C25.5058 0.25989 25.3149 0.41064 25.164 0.597614L24.878 0.80967C19.3357 -0.906054 13.0126 0.353428 8.61079 4.59454C6.76748 6.34363 5.39621 8.53029 4.6244 10.9513C3.85259 13.3724 3.70529 15.9492 4.19618 18.4424C4.14162 18.4906 4.08806 18.5399 4.03553 18.5902L1.53263 20.9999C1.04847 21.4592 0.662891 22.0123 0.399403 22.6255C0.135915 23.2386 3.05176e-05 23.899 3.05176e-05 24.5663C3.05176e-05 25.2337 0.135915 25.8941 0.399403 26.5072C0.662891 27.1204 1.04847 27.6734 1.53263 28.1327C2.81139 29.3665 4.58495 29.8292 6.2332 29.5207C6.43561 30.4493 6.90792 31.3328 7.65654 32.0526C8.64292 33.0036 9.9249 33.4952 11.2165 33.5305C11.2519 34.7739 11.7627 36.0077 12.7491 36.9588C13.7355 37.9098 15.0207 38.4046 16.3123 38.4367C16.3444 39.6801 16.8585 40.9171 17.8449 41.8682C18.7892 42.7643 20.0262 43.2881 21.3269 43.3424C22.6276 43.3968 23.904 42.978 24.9198 42.1638L26.3239 43.5132C28.3802 45.4956 31.7152 45.4956 33.7715 43.5132C34.7547 42.5686 35.2656 41.3412 35.3105 40.101C36.5957 40.0625 37.8648 39.5709 38.8448 38.6263C39.828 37.6785 40.3388 36.4511 40.3774 35.2109C41.6832 35.1651 42.9264 34.6401 43.8699 33.7361C44.6506 32.9875 45.1326 32.059 45.3189 31.0887C46.146 31.2337 46.9955 31.1825 47.7991 30.9392C48.6027 30.6958 49.3379 30.2672 49.9456 29.6878C50.4303 29.2285 50.8163 28.6752 51.0801 28.0618C51.3438 27.4483 51.4799 26.7876 51.4799 26.1198C51.4799 25.4521 51.3438 24.7913 51.0801 24.1779C50.8163 23.5644 50.4303 23.0112 49.9456 22.5518L47.6323 20.3252L48.1046 18.5581C49.06 14.9454 48.5762 11.1028 46.7551 7.83964C44.0691 3.00091 38.8577 0.0128543 33.2221 0.0128543H29.2702C29.1 0.00442012 28.9297 0.000135059 28.7593 2.56079e-06H26.4171ZM34.2985 11.9394L42.0256 19.3838L42.0353 19.3903L47.6291 24.7816C47.8108 24.9539 47.9555 25.1614 48.0544 25.3915C48.1533 25.6216 48.2043 25.8694 48.2043 26.1198C48.2043 26.3702 48.1533 26.618 48.0544 26.8481C47.9555 27.0782 47.8108 27.2857 47.6291 27.458C47.2537 27.8135 46.7564 28.0116 46.2394 28.0116C45.7225 28.0116 45.2252 27.8135 44.8498 27.458L40.6055 23.3711C40.2944 23.0726 39.88 22.906 39.4488 22.906C39.0177 22.906 38.6033 23.0726 38.2922 23.3711L38.2472 23.4097C38.0957 23.5532 37.9751 23.7261 37.8926 23.9177C37.8102 24.1094 37.7677 24.3159 37.7677 24.5246C37.7677 24.7332 37.8102 24.9397 37.8926 25.1314C37.9751 25.3231 38.0957 25.496 38.2472 25.6395L41.5565 28.8267C42.3277 29.5657 42.3277 30.7674 41.5565 31.5096C41.2153 31.8329 40.7721 32.0274 40.3031 32.0597C39.8341 32.0919 39.3685 31.9599 38.9862 31.6863C38.6671 31.4558 38.2774 31.3443 37.8847 31.3713C37.492 31.3983 37.1212 31.5621 36.8367 31.8341C36.5587 32.0999 36.3908 32.4606 36.3664 32.8445C36.342 33.2285 36.4628 33.6075 36.705 33.9064C36.9934 34.2677 37.1356 34.7241 37.1035 35.1853C37.0714 35.6464 36.8672 36.0787 36.5315 36.3965C36.1854 36.7247 35.7345 36.9201 35.2584 36.9484C34.7822 36.9766 34.3114 36.8357 33.929 36.5507C33.6115 36.3126 33.2201 36.1942 32.8239 36.2166C32.4277 36.2389 32.0521 36.4005 31.7634 36.6728C31.4818 36.9383 31.3109 37.3005 31.2853 37.6867C31.2597 38.0729 31.3811 38.4545 31.6253 38.7548C31.9205 39.1209 32.0669 39.5848 32.0353 40.054C32.0037 40.5232 31.7965 40.9633 31.455 41.2866C31.0747 41.6475 30.5704 41.8487 30.0461 41.8487C29.5218 41.8487 29.0175 41.6475 28.6372 41.2866L27.246 39.9468L27.7536 39.4584C28.2383 38.9991 28.6243 38.4458 28.8881 37.8324C29.1519 37.2189 29.2879 36.5582 29.2879 35.8904C29.2879 35.2227 29.1519 34.5619 28.8881 33.9485C28.6243 33.335 28.2383 32.7818 27.7536 32.3224C26.7934 31.4022 25.5233 30.8749 24.1937 30.8445C24.1547 29.5435 23.6039 28.3104 22.6611 27.413C21.6996 26.4932 20.4283 25.967 19.0979 25.9383C19.0589 24.6373 18.5082 23.4042 17.5653 22.5068C16.9481 21.9193 16.1998 21.4873 15.3824 21.2465C14.5649 21.0057 13.7019 20.963 12.8648 21.122C12.653 20.1552 12.1574 19.2736 11.4414 18.5902C10.8926 18.0665 10.2386 17.6655 9.52285 17.414C8.80713 17.1625 8.04607 17.0662 7.29026 17.1315C7.03714 15.2488 7.23424 13.3329 7.86539 11.5411C8.49653 9.74931 9.54371 8.13281 10.9209 6.82434C12.3126 5.49478 13.9811 4.48957 15.807 3.88076C17.6329 3.27196 19.5708 3.07463 21.4819 3.30293L16.8071 6.74081C16.2089 7.17542 15.7051 7.72676 15.3259 8.36152C14.9468 8.99627 14.7002 9.70128 14.6012 10.434C14.5021 11.1667 14.5525 11.9119 14.7494 12.6245C14.9463 13.3372 15.2856 14.0026 15.7468 14.5804C16.6795 15.75 18.0273 16.5148 19.5096 16.7159C20.9919 16.917 22.4947 16.5388 23.7053 15.66L28.7689 11.9426H34.2952L34.2985 11.9394ZM18.7091 9.32724L27.0372 3.21297H28.7593C28.9168 3.21213 29.0744 3.21642 29.2316 3.22582H33.2221C37.7331 3.22582 41.8489 5.61948 43.947 9.40114C45.3671 11.9587 45.7398 14.9307 44.9976 17.7356L44.988 17.7677L36.1202 9.19872C35.8197 8.89723 35.4117 8.72736 34.986 8.72642H28.2388C27.8978 8.72707 27.5658 8.83622 27.291 9.03807L21.8032 13.0671C21.2642 13.4531 20.598 13.6185 19.941 13.5296C19.2841 13.4406 18.6859 13.1039 18.269 12.5884C18.0747 12.3491 17.9314 12.0725 17.848 11.7757C17.7647 11.4789 17.7429 11.1682 17.7842 10.8627C17.8254 10.5572 17.9287 10.2633 18.0878 9.99928C18.2469 9.73521 18.4583 9.50651 18.7091 9.32724ZM20.1293 36.9909L20.1614 36.9588L22.6611 34.549L22.69 34.5233C23.0675 34.1801 23.5607 33.9924 24.0708 33.9977C24.581 34.0031 25.0702 34.2012 25.4403 34.5522C25.622 34.7246 25.7667 34.9321 25.8656 35.1621C25.9645 35.3922 26.0155 35.64 26.0155 35.8904C26.0155 36.1409 25.9645 36.3887 25.8656 36.6187C25.7667 36.8488 25.622 37.0563 25.4403 37.2286L22.9374 39.6384C22.5621 39.9938 22.0648 40.1919 21.5478 40.1919C21.0308 40.1919 20.5335 39.9938 20.1582 39.6384C19.9789 39.4686 19.8355 39.2646 19.7365 39.0383C19.6375 38.8121 19.5849 38.5683 19.5819 38.3214C19.5789 38.0745 19.6256 37.8295 19.719 37.601C19.8125 37.3724 19.9509 37.1649 20.1261 36.9909H20.1293ZM20.3767 32.2935L20.3445 32.3224L17.8449 34.7322L17.8127 34.7611C17.4351 35.1029 16.9422 35.2895 16.4329 35.2836C15.9235 35.2776 15.4352 35.0795 15.0656 34.729C14.886 34.5585 14.7425 34.3535 14.6437 34.1264C14.545 33.8992 14.493 33.6545 14.4909 33.4068C14.4888 33.1591 14.5366 32.9135 14.6315 32.6847C14.7264 32.4559 14.8664 32.2486 15.0431 32.075L15.0656 32.0526L17.5653 29.6428L17.5878 29.6203C17.9648 29.2744 18.459 29.0844 18.9706 29.0886C19.4822 29.0927 19.9732 29.2908 20.3445 29.6428C20.5244 29.8126 20.6682 30.0169 20.7675 30.2434C20.8668 30.4699 20.9195 30.7141 20.9225 30.9614C20.9255 31.2087 20.8787 31.454 20.7849 31.6829C20.6912 31.9118 20.5523 32.1194 20.3767 32.2935ZM15.252 27.413L12.7491 29.8228L12.7266 29.8452C12.3496 30.1911 11.8554 30.3812 11.3438 30.377C10.8322 30.3728 10.3412 30.1748 9.96988 29.8228C9.78817 29.6504 9.64346 29.4429 9.54456 29.2128C9.44567 28.9828 9.39467 28.735 9.39467 28.4846C9.39467 28.2341 9.44567 27.9863 9.54456 27.7563C9.64346 27.5262 9.78817 27.3187 9.96988 27.1464L12.4696 24.7366C12.8451 24.3802 13.3431 24.1815 13.8608 24.1815C14.3785 24.1815 14.8765 24.3802 15.252 24.7366C15.4322 24.9072 15.5761 25.1123 15.6751 25.3398C15.7742 25.5672 15.8263 25.8123 15.8284 26.0604C15.8305 26.3085 15.7825 26.5544 15.6873 26.7835C15.5922 27.0126 15.4517 27.2202 15.2745 27.3938L15.252 27.413ZM9.12808 23.4964L6.62839 25.9061C6.25324 26.2633 5.75513 26.4625 5.23718 26.4625C4.71923 26.4625 4.22111 26.2633 3.84596 25.9061C3.66375 25.7338 3.51861 25.5261 3.41942 25.2957C3.32022 25.0653 3.26906 24.8172 3.26906 24.5663C3.26906 24.3155 3.32022 24.0673 3.41942 23.837C3.51861 23.6066 3.66375 23.3989 3.84596 23.2265L6.34886 20.8168C6.72422 20.4614 7.22152 20.2632 7.73847 20.2632C8.25543 20.2632 8.75273 20.4614 9.12808 20.8168C9.31029 20.9892 9.45544 21.1969 9.55463 21.4272C9.65382 21.6576 9.70498 21.9058 9.70498 22.1566C9.70498 22.4074 9.65382 22.6556 9.55463 22.886C9.45544 23.1164 9.31029 23.3241 9.12808 23.4964Z" fill="#F7A6FF"/>
</g>
</svg>
