<svg width="45" height="45" viewBox="0 0 45 45" fill="none" xmlns="http://www.w3.org/2000/svg">
<g id="Group">
<path id="Vector" d="M30.3746 21.9366C30.3746 21.4891 30.1968 21.0599 29.8803 20.7434C29.5638 20.4269 29.1346 20.2491 28.6871 20.2491C28.2395 20.2491 27.8103 20.4269 27.4938 20.7434C27.1774 21.0599 26.9996 21.4891 26.9996 21.9366V26.4366C26.9996 26.8842 27.1774 27.3134 27.4938 27.6299C27.8103 27.9464 28.2395 28.1241 28.6871 28.1241C29.1346 28.1241 29.5638 27.9464 29.8803 27.6299C30.1968 27.3134 30.3746 26.8842 30.3746 26.4366V21.9366Z" fill="#C293FE"/>
<path id="Vector_2" d="M21.9366 20.2491C22.3842 20.2491 22.8134 20.4269 23.1299 20.7434C23.4464 21.0599 23.6241 21.4891 23.6241 21.9366V26.4366C23.6241 26.8842 23.4464 27.3134 23.1299 27.6299C22.8134 27.9464 22.3842 28.1241 21.9366 28.1241C21.4891 28.1241 21.0599 27.9464 20.7434 27.6299C20.4269 27.3134 20.2491 26.8842 20.2491 26.4366V21.9366C20.2491 21.4891 20.4269 21.0599 20.7434 20.7434C21.0599 20.4269 21.4891 20.2491 21.9366 20.2491Z" fill="#C293FE"/>
<path id="Vector_3" d="M16.8759 21.9366C16.8759 21.4891 16.6981 21.0599 16.3816 20.7434C16.0651 20.4269 15.6359 20.2491 15.1884 20.2491C14.7408 20.2491 14.3116 20.4269 13.9951 20.7434C13.6786 21.0599 13.5009 21.4891 13.5009 21.9366V26.4366C13.5009 26.8842 13.6786 27.3134 13.9951 27.6299C14.3116 27.9464 14.7408 28.1241 15.1884 28.1241C15.6359 28.1241 16.0651 27.9464 16.3816 27.6299C16.6981 27.3134 16.8759 26.8842 16.8759 26.4366V21.9366Z" fill="#C293FE"/>
<path id="Vector_4" d="M8.43793 30.3759C8.88548 30.3759 9.3147 30.5536 9.63117 30.8701C9.94764 31.1866 10.1254 31.6158 10.1254 32.0634V37.6884C10.1254 38.1359 9.94764 38.5651 9.63117 38.8816C9.3147 39.1981 8.88548 39.3759 8.43793 39.3759C7.99037 39.3759 7.56115 39.1981 7.24468 38.8816C6.92822 38.5651 6.75043 38.1359 6.75043 37.6884V32.0634C6.75043 31.6158 6.92822 31.1866 7.24468 30.8701C7.56115 30.5536 7.99037 30.3759 8.43793 30.3759Z" fill="#C293FE"/>
<path id="Vector_5" d="M38.2504 32.0634C38.2504 31.6158 38.0726 31.1866 37.7562 30.8701C37.4397 30.5536 37.0105 30.3759 36.5629 30.3759C36.1154 30.3759 35.6862 30.5536 35.3697 30.8701C35.0532 31.1866 34.8754 31.6158 34.8754 32.0634V37.6884C34.8754 38.1359 35.0532 38.5651 35.3697 38.8816C35.6862 39.1981 36.1154 39.3759 36.5629 39.3759C37.0105 39.3759 37.4397 39.1981 37.7562 38.8816C38.0726 38.5651 38.2504 38.1359 38.2504 37.6884V32.0634Z" fill="#C293FE"/>
<path id="Vector_6" d="M21.9375 0H30.375C30.6734 0 30.9595 0.118527 31.1705 0.329505C31.3815 0.540484 31.5 0.826631 31.5 1.125V5.625C31.5 5.92337 31.3815 6.20952 31.1705 6.4205C30.9595 6.63147 30.6734 6.75 30.375 6.75H23.625V9.0405C27.5972 9.32495 31.3142 11.1036 34.0277 14.0184C36.7413 16.9331 38.2499 20.7676 38.25 24.75H39.9375C41.2802 24.75 42.5678 25.2834 43.5172 26.2328C44.4666 27.1822 45 28.4698 45 29.8125V43.3125C45 43.7601 44.8222 44.1893 44.5057 44.5057C44.1893 44.8222 43.7601 45 43.3125 45H1.6875C1.23995 45 0.810725 44.8222 0.494257 44.5057C0.177789 44.1893 0 43.7601 0 43.3125V29.8125C0 28.4698 0.533369 27.1822 1.48277 26.2328C2.43217 25.2834 3.71984 24.75 5.0625 24.75H6.75C6.74996 20.9622 8.11458 17.3012 10.5939 14.4376C13.0732 11.574 16.5012 9.69954 20.25 9.1575V1.6875C20.25 1.23995 20.4278 0.810725 20.7443 0.494257C21.0607 0.177789 21.4899 0 21.9375 0ZM22.5 12.375C19.2179 12.375 16.0703 13.6788 13.7496 15.9996C11.4288 18.3203 10.125 21.4679 10.125 24.75V26.4375C10.125 26.8851 9.94721 27.3143 9.63074 27.6307C9.31428 27.9472 8.88505 28.125 8.4375 28.125H5.0625C4.61495 28.125 4.18572 28.3028 3.86926 28.6193C3.55279 28.9357 3.375 29.3649 3.375 29.8125V41.625H16.875V35.4375C16.875 34.9899 17.0528 34.5607 17.3693 34.2443C17.6857 33.9278 18.1149 33.75 18.5625 33.75H26.4375C26.8851 33.75 27.3143 33.9278 27.6307 34.2443C27.9472 34.5607 28.125 34.9899 28.125 35.4375V41.625H41.625V29.8125C41.625 29.3649 41.4472 28.9357 41.1307 28.6193C40.8143 28.3028 40.3851 28.125 39.9375 28.125H36.5625C36.1149 28.125 35.6857 27.9472 35.3693 27.6307C35.0528 27.3143 34.875 26.8851 34.875 26.4375V24.75C34.875 21.4679 33.5712 18.3203 31.2504 15.9996C28.9297 13.6788 25.7821 12.375 22.5 12.375ZM24.75 37.125H20.25V41.625H24.75V37.125Z" fill="#C293FE"/>
</g>
</svg>
