<svg width="41" height="45" viewBox="0 0 41 45" fill="none" xmlns="http://www.w3.org/2000/svg">
<g id="Group 380">
<path id="Vector" d="M20.4536 12.2725C21.5832 12.2725 22.499 11.3567 22.499 10.2271C22.499 9.0974 21.5832 8.18164 20.4536 8.18164C19.3239 8.18164 18.4081 9.0974 18.4081 10.2271C18.4081 11.3567 19.3239 12.2725 20.4536 12.2725Z" fill="#8E83DD"/>
<path id="Vector_2" d="M8.18109 32.7266H32.726V36.8174H8.18109V32.7266Z" fill="#8E83DD"/>
<path id="Vector_3" d="M16.3627 22.1518L22.0735 27.8667L30.1161 19.818L32.726 22.4995V14.3179H24.5444L27.2239 16.9258L22.0715 22.0782L16.3627 16.3633L8.18109 24.5449L11.0733 27.4371L16.3627 22.1518Z" fill="#8E83DD"/>
<path id="Vector_4" d="M34.7714 4.0918H28.0257C27.8248 3.78937 27.6063 3.49909 27.3711 3.2225L27.3507 3.19795C25.8479 1.4476 23.7335 0.337005 21.4394 0.0930206C20.788 -0.0310069 20.1191 -0.0310069 19.4677 0.0930206C17.1736 0.337005 15.0592 1.4476 13.5564 3.19795L13.536 3.2225C13.3009 3.49843 13.0823 3.78802 12.8814 4.08975V4.0918H6.13568C4.50875 4.09342 2.94892 4.74044 1.79851 5.89085C0.648091 7.04127 0.00107518 8.6011 -0.000549316 10.228V38.8638C0.00107518 40.4907 0.648091 42.0505 1.79851 43.2009C2.94892 44.3514 4.50875 44.9984 6.13568 45H34.7714C36.3984 44.9984 37.9582 44.3514 39.1086 43.2009C40.259 42.0505 40.906 40.4907 40.9077 38.8638V10.228C40.906 8.6011 40.259 7.04127 39.1086 5.89085C37.9582 4.74044 36.3984 4.09342 34.7714 4.0918ZM36.8168 38.8638C36.8168 39.4062 36.6013 39.9265 36.2177 40.3101C35.8342 40.6937 35.3139 40.9092 34.7714 40.9092H6.13568C5.59337 40.9086 5.07343 40.693 4.68996 40.3095C4.30648 39.926 4.09081 39.4061 4.09027 38.8638V10.228C4.09081 9.68572 4.30648 9.16577 4.68996 8.7823C5.07343 8.39883 5.59337 8.18316 6.13568 8.18262H15.4423C15.677 7.02667 16.3042 5.98741 17.2174 5.24093C18.1307 4.49446 19.274 4.08667 20.4536 4.08667C21.6331 4.08667 22.7764 4.49446 23.6897 5.24093C24.6029 5.98741 25.2301 7.02667 25.4648 8.18262H34.7714C35.3137 8.18316 35.8337 8.39883 36.2171 8.7823C36.6006 9.16577 36.8163 9.68572 36.8168 10.228V38.8638Z" fill="#8E83DD"/>
</g>
</svg>
