<svg width="45" height="45" viewBox="0 0 45 45" fill="none" xmlns="http://www.w3.org/2000/svg">
<g id="Group">
<path id="Vector" fill-rule="evenodd" clip-rule="evenodd" d="M41.25 2.5H3.75C3.41848 2.5 3.10054 2.6317 2.86612 2.86612C2.6317 3.10054 2.5 3.41848 2.5 3.75V41.25C2.5 41.5815 2.6317 41.8995 2.86612 42.1339C3.10054 42.3683 3.41848 42.5 3.75 42.5H41.25C41.5815 42.5 41.8995 42.3683 42.1339 42.1339C42.3683 41.8995 42.5 41.5815 42.5 41.25V3.75C42.5 3.41848 42.3683 3.10054 42.1339 2.86612C41.8995 2.6317 41.5815 2.5 41.25 2.5ZM3.75 0C2.75544 0 1.80161 0.395088 1.09835 1.09835C0.395088 1.80161 0 2.75544 0 3.75V41.25C0 42.2446 0.395088 43.1984 1.09835 43.9016C1.80161 44.6049 2.75544 45 3.75 45H41.25C42.2446 45 43.1984 44.6049 43.9016 43.9016C44.6049 43.1984 45 42.2446 45 41.25V3.75C45 2.75544 44.6049 1.80161 43.9016 1.09835C43.1984 0.395088 42.2446 0 41.25 0H3.75Z" fill="#79EBB0"/>
<path id="Vector_2" d="M16.2496 17.5004C16.2496 18.495 15.8545 19.4488 15.1513 20.1521C14.448 20.8553 13.4942 21.2504 12.4996 21.2504C11.505 21.2504 10.5512 20.8553 9.84795 20.1521C9.14469 19.4488 8.7496 18.495 8.7496 17.5004C8.7496 16.5059 9.14469 15.552 9.84795 14.8488C10.5512 14.1455 11.505 13.7504 12.4996 13.7504C13.4942 13.7504 14.448 14.1455 15.1513 14.8488C15.8545 15.552 16.2496 16.5059 16.2496 17.5004Z" fill="#79EBB0"/>
<path id="Vector_3" fill-rule="evenodd" clip-rule="evenodd" d="M7.8208 26.55C7.5583 26.8137 7.5008 27.0112 7.5008 27.1587V31.25H5.0008V27.1587C5.0008 26.1737 5.4633 25.3775 6.04705 24.7887C6.6208 24.2125 7.35955 23.78 8.0933 23.4588C9.5533 22.8213 11.2858 22.5 12.5008 22.5C13.7145 22.5 15.4483 22.8213 16.9083 23.4588C17.642 23.78 18.3808 24.2125 18.9545 24.7887C19.5395 25.3775 20.0008 26.1737 20.0008 27.1587V31.25H17.5008V27.1587C17.5008 27.0112 17.442 26.8137 17.1808 26.5512C16.9083 26.2762 16.4758 25.9988 15.907 25.75C14.7645 25.25 13.372 25 12.5008 25C11.6295 25 10.2383 25.25 9.09455 25.75C8.5258 25.9975 8.09455 26.275 7.8208 26.55Z" fill="#79EBB0"/>
<path id="Vector_4" fill-rule="evenodd" clip-rule="evenodd" d="M27.8204 26.55C27.5579 26.8137 27.5004 27.0112 27.5004 27.1587V31.25H25.0004V27.1587C25.0004 26.1737 25.4629 25.3775 26.0466 24.7887C26.6204 24.2125 27.3591 23.78 28.0929 23.4588C29.5529 22.8213 31.2866 22.5 32.5004 22.5C33.7141 22.5 35.4479 22.8213 36.9079 23.4588C37.6416 23.78 38.3804 24.2125 38.9541 24.7887C39.5391 25.3775 40.0004 26.1737 40.0004 27.1587V31.25H37.5004V27.1587C37.5004 27.0112 37.4416 26.8137 37.1804 26.5512C36.9079 26.2762 36.4754 25.9988 35.9066 25.75C34.7641 25.25 33.3716 25 32.5004 25C31.6291 25 30.2379 25.25 29.0941 25.75C28.5254 25.9975 28.0941 26.275 27.8204 26.55Z" fill="#79EBB0"/>
<path id="Vector_5" d="M36.2492 17.5004C36.2492 18.495 35.8541 19.4488 35.1509 20.1521C34.4476 20.8553 33.4938 21.2504 32.4992 21.2504C31.5046 21.2504 30.5508 20.8553 29.8476 20.1521C29.1443 19.4488 28.7492 18.495 28.7492 17.5004C28.7492 16.5059 29.1443 15.552 29.8476 14.8488C30.5508 14.1455 31.5046 13.7504 32.4992 13.7504C33.4938 13.7504 34.4476 14.1455 35.1509 14.8488C35.8541 15.552 36.2492 16.5059 36.2492 17.5004Z" fill="#79EBB0"/>
<path id="Vector_6" d="M26.2494 15C26.2494 15.9946 25.8543 16.9484 25.1511 17.6517C24.4478 18.3549 23.494 18.75 22.4994 18.75C21.5048 18.75 20.551 18.3549 19.8478 17.6517C19.1445 16.9484 18.7494 15.9946 18.7494 15C18.7494 14.0054 19.1445 13.0516 19.8478 12.3483C20.551 11.6451 21.5048 11.25 22.4994 11.25C23.494 11.25 24.4478 11.6451 25.1511 12.3483C25.8543 13.0516 26.2494 14.0054 26.2494 15Z" fill="#79EBB0"/>
<path id="Vector_7" fill-rule="evenodd" clip-rule="evenodd" d="M20.8714 23.7442C20.5177 23.7792 20.3964 23.8592 20.3077 23.958L18.4427 22.293C19.0989 21.558 19.9177 21.3255 20.6277 21.2555C21.0577 21.2142 21.5902 21.2292 22.0277 21.2405C22.2052 21.2455 22.3677 21.2505 22.5002 21.2505C22.6327 21.2505 22.7952 21.2455 22.9739 21.2405C23.4102 21.228 23.9427 21.2155 24.3714 21.2567C25.0839 21.3255 25.9014 21.558 26.5577 22.293L24.6927 23.958C24.6052 23.8592 24.4827 23.7792 24.1289 23.7455C23.8986 23.7271 23.6674 23.7221 23.4364 23.7305L23.1839 23.7367C22.9714 23.743 22.7302 23.7505 22.5002 23.7505C22.2702 23.7505 22.0289 23.743 21.8164 23.738L21.5639 23.7305C21.333 23.7216 21.1018 23.7262 20.8714 23.7442Z" fill="#79EBB0"/>
</g>
</svg>
