<svg width="45" height="45" viewBox="0 0 45 45" fill="none" xmlns="http://www.w3.org/2000/svg">
<path id="Vector" d="M22.5 0C10.0935 0 0 10.0935 0 22.5V31.8217C0 34.1257 2.01825 36 4.5 36H6.75C7.34674 36 7.91903 35.7629 8.34099 35.341C8.76295 34.919 9 34.3467 9 33.75V22.1783C9 21.5815 8.76295 21.0092 8.34099 20.5873C7.91903 20.1653 7.34674 19.9283 6.75 19.9283H4.707C5.958 11.2208 13.4505 4.5 22.5 4.5C31.5495 4.5 39.042 11.2208 40.293 19.9283H38.25C37.6533 19.9283 37.081 20.1653 36.659 20.5873C36.2371 21.0092 36 21.5815 36 22.1783V36C36 38.4818 33.9818 40.5 31.5 40.5H27V38.25H18V45H31.5C36.4635 45 40.5 40.9635 40.5 36C42.9818 36 45 34.1257 45 31.8217V22.5C45 10.0935 34.9065 0 22.5 0Z" fill="#A3D4C3"/>
</svg>
